<?xml version="1.0" encoding="utf-8"?>
<!-- Generator: Adobe Illustrator 20.0.0, SVG Export Plug-In . SVG Version: 6.00 Build 0)  -->
<svg version="1.1" id="Layer_1" xmlns="http://www.w3.org/2000/svg" xmlns:xlink="http://www.w3.org/1999/xlink" x="0px" y="0px"
	 viewBox="0 0 401.2 315.5" style="enable-background:new 0 0 401.2 315.5;" xml:space="preserve">
<style type="text/css">
	.st0{opacity:0.3;}
	.st1{fill:none;stroke:#231F20;stroke-width:1.5;stroke-linecap:round;stroke-linejoin:round;stroke-miterlimit:10;}
</style>
<g class="st0">
	<path class="st1" d="M11.4,1.2c-18.9,68.2,3.2,146.1,55.1,194.3c11.3,10.4,24,19.7,38.3,25.2c14,5.4,29.2,7.2,44.2,7.8
		c79.2,3.2,159.3-25.6,218.2-78.7c10.7-9.7,21.3-20.9,24.3-35.1"/>
	<path class="st1" d="M392.2,108c2.4,17.9-0.7,36.7-8.8,52.9c-0.5,1.1-1.1,2.5-0.3,3.4c1.1,1.4,3.2,0.1,4.3-1.3
		c7.7-9.5,11.4-21.7,12.5-33.9c1-12.2-0.5-24.4-2.2-36.5c-0.5-3.5-1.4-9-4.4-10.8c-22-12.5-58.5-3.2-84.8,8.8
		C296.7,96,285.7,103,274.7,110c-30,19.1-64.3,40.5-94.3,59.6"/>
	<path class="st1" d="M72.6,68.3c-11.4,10.9-20.4,24.6-25.8,39.5c-2.3,6.4-4,13.1-4.3,19.9c-0.9,20.6,14.5,41.8,33.8,49.1"/>
	<path class="st1" d="M52.7,160.1c-4.3-6.9-4.3-16.3,0.1-23.2c-0.6,1.4-0.2,3.3,1.1,4.3c0.4-5.6,4.1-10.9,9.3-13.2
		c-2,7.4-4,15.4-0.8,22.3c0.9,2.1,2.3,4,3.7,5.8c4.3,5.6,8.5,11.3,12.8,17"/>
	<path class="st1" d="M10.9,3.1c0.7-0.7,1.5-1.4,2.2-2.1c2.4,0.9,4.7,1.9,7.1,2.8c0.9-1.1,2.1-2,3.5-2.4c0.6,0.9,1.2,1.7,1.8,2.6
		c2.2-0.6,4.5-1.2,6.7-1.8C32.9,2,33.8,1.8,34.5,2c0.9,0.3,1.5,1.2,2,2.1c2.4,4.4,4.9,8.8,7.4,13.2c1,1.9,2.6,4.1,4.8,4
		c3.3,1.8,0.1,8,3.1,10.3c2.1,1.7,6.4,0.3,7.4,2.8c0.4,0.9,0,2-0.3,3c-1.1,3-2.1,6-3.2,9c-0.9,2.6-1.9,5.4-1.1,8.1s4.1,4.8,6.4,3.3
		c-0.7,4.1-0.4,8.3,0.7,12.3c3.9-1.5,7.9-2.6,12-3.4"/>
	<path class="st1" d="M51.1,179.1c-2.9-0.3-5.8,0.7-7.8,2.8c-0.7,0.8-1.4,1.7-2.4,2.1c-1.3,0.5-2.6-0.2-3.9-0.7
		c-3.7-1.4-8.9-1-10.3,2.7c-6.4-6.1-17.7,2.8-25.7-1.1c-0.2,5,3.8,9.1,7.8,12.2c27.1,21,70.8,28.3,99.3,24.9"/>
	<path class="st1" d="M199,227.6c-3.6,14.5-11,28-21.2,38.9c-2.1,2.3-4.5,4.7-4.6,7.8c0,2.2,1,4.3,0.9,6.4c-0.3,4.7-5.7,6.9-9.8,9.3
		c-6.8,3.9-11.9,10.9-13.4,18.6c4.1,1.5,8.6-0.1,12.6-2c37-17.5,61.9-53,83-88"/>
	<path class="st1" d="M248.8,126.6c0.3-1.6-1.4-3.1-2.9-2.7c1-1.8,2.1-3.6,3.2-5.4c-3.1-0.5-6.1-1.1-9.1-1.7c2.4-1.5,4.2-3.8,5-6.5
		c-2.4-1-5.1-1.6-7.7-1.6c2.3-0.6,3.2-3.7,2.1-5.7c-1-2.1-3.4-3.2-5.7-3.4c1-1.2,3.1-1.4,4.3-0.4c-1.2-4.3-4.5-8-8.7-9.5
		c1.8-1.8,3.8-3.9,3.4-6.4c-0.3-1.7-1.6-3-2.5-4.4c-2-3.1-2.5-6.8-4-10.3s-4.4-6.8-8.1-6.6c1-1,1.8-2.2,2.2-3.5
		c-3.2-1.5-6.3-3.1-9.5-4.6c10.9,0.1,22,0.2,32.6,2.7s21,7.6,27.8,16.1c6.9,8.7,9.8,20.2,17.5,28.3"/>
	<path class="st1" d="M300.5,196.5c-3,6.8-5.9,13.7-8.9,20.6c-0.9,2.1,0.2,5.8,1.9,4.4c-8,7.3-13.1,17.8-13.9,28.6
		c6.3-4.1,12.7-8.2,17.5-14c4.8-5.8,7.9-13.4,6.4-20.8c3.5,13.7-9.1,26.4-9.5,40.5c-0.3,10.4,6,21.3,1.5,30.6
		c1.4-0.8,2.9-1.5,4.3-2.3c-3.3,7.3-5.3,15.2-6,23.2c1.8-0.6,3.5-1.3,5.3-1.9c-1.1,3.1-0.5,6.6,1.5,9.2
		c5.6-15.7,14.4-30.2,25.7-42.4c5.7-6.2,12-11.8,16.2-19.1c4.6-8,6.1-17.4,7.6-26.5c1.9,0.7,3.8,1.4,5.7,2.1
		c-5.3-18-12.1-35.5-20.3-52.4"/>
	<path class="st1" d="M354.9,76.1c-9-5.1-14.9-7.2-24.4-11.1c-0.3-1.4,1.7-2.2,3.2-2.2c17-0.1,31.2,16.7,48.1,14.8"/>
	<path class="st1" d="M21.8,2.6C0.4,53.8,13.3,123.4,57.1,164.3"/>
	<path class="st1" d="M382.9,115.1c-2.8,1.9-6.1,3.2-8.9,5.1c-2.8,1.9-5.4,4.5-6.1,7.9c-0.7,3.4,1.2,7.4,4.6,8
		c4.3,0.8,7.6-3.8,8.9-7.9c1.4-4.1,1.9-8.5,1.6-12.8"/>
	<path class="st1" d="M298.9,286.6c2.9-7.8,11.1-11.9,17.6-17.1c11.6-9.3,18.6-24,18.7-38.8c0.1-16.9-8.4-33.3-6.3-50.1"/>
	<path class="st1" d="M296.6,273.3c3.2-7.7,11.1-12.2,16.9-18.1c6.4-6.6,10.6-15.4,11.6-24.6c1.6-15.3-4.5-34.3-0.2-49"/>
	<path class="st1" d="M295.4,261.3c9.4-13.8,22.3-24.3,23-41c0.5-11.1-5.2-22.7-1.1-33.1"/>
	<path class="st1" d="M349.4,227.3c-1.3-6-6.2-12.2-9.5-17.5c-6.6-10.7-5-19-6.3-31.5"/>
	<path class="st1" d="M303.5,215.2c-1.4-8,3.1-17.8,7.2-25.3"/>
	<path class="st1" d="M154.5,298.7c12.1-1.8,23.7-6.4,33.7-13.3c5.6-3.9,10.7-8.5,14.7-14.1c7.2-10,10.6-22.9,19.8-31.2
		c3.3-2.9,7.1-5.1,10.2-8.3c3.1-3.1,5.3-7.7,4.1-11.9"/>
	<path class="st1" d="M174.9,282.1c13.2-1.5,23.9-9.2,30.2-20.8c5-9.2,6.7-20.6,14.4-27.7c1.7-1.7,3.8-3,5.3-4.9s2.4-4.5,1.4-6.7"/>
	<path class="st1" d="M173.1,274.4c12-2.2,22.8-10.2,28.3-21c2.8-5.5,4.3-11.7,8-16.7c2.8-3.9,7-7.3,7.3-12.1"/>
	<path class="st1" d="M185.2,258.4c8.5-5.9,15-14.8,17.9-24.7c0.7-2.5,1.2-5,2.8-7"/>
	<path class="st1" d="M46.8,180.2c6.3,16.2,21.4,28.5,38.5,31.5"/>
	<path class="st1" d="M39.2,183.9c7.4,13,20,22.5,33.8,28.1c5.4,2.2,11.2,3.8,16.9,2.7"/>
	<path class="st1" d="M26,186.1c6.7,12.4,16.9,19.1,29.8,24.5s28.5,9.7,42.4,8.1"/>
	<path class="st1" d="M86.4,181.6c18-7,37.6-9.8,56.8-8.2c19.1,1.7,38.6,7.6,56.9,2c24.2-6.5,50-11.7,72.2-23.3
		c6.7-3.5,13.3-7.6,17.7-13.8c-41.7,25.5-91.6,37.3-140.3,33.1c-13.4-1.2-26.7-3.5-40.2-3.2s-27.4,3.6-37.6,12.4
		c3.1-0.8,6.2-1.4,9.3-2c1.6-0.3,3.3-0.5,4.5,0.5s0.6,3.5-0.9,3.3c3.9-1.3,8-1.5,12-0.7c-1,1.5-2,3.1-3,4.6
		c11.7,1,23.1,4.6,34.9,5.4s24.7-2,32.1-11.2"/>
	<path class="st1" d="M94.7,186c1.9,0.4,3.9,0.1,5.9-0.3c17.6-3.4,35.3-9.7,53.1-7.1c11.3,1.6,27.1,7.4,38.6-1.5"/>
	<path class="st1" d="M55.1,136.8c-0.6,1.9-0.8,4-0.6,6c0.6,5.1,3.5,9.5,6.4,13.7c4,5.8,9,12.4,13,18.2"/>
	<path class="st1" d="M50.4,144.1c-0.5,2.2,0.7,4.4,1.8,6.4c3.2,5.6,7.7,13.4,11,19"/>
	<path class="st1" d="M42.6,139c-11-17.7-17-38.4-18.8-59.2c-1.8-20.9,0.6-41.9,5.4-62.3C30.5,12,32,6.5,35,1.7"/>
	<path class="st1" d="M42.6,132c-7.1-14.5-11.9-30-12.1-46.2c0-5,0.1-12,0.4-17c1-17.4,4-34.3,14.2-48.4"/>
	<path class="st1" d="M36,115c-4.4-29.7,1.3-56.8,15.2-83.3"/>
	<path class="st1" d="M37.8,121.6c-1.9-11.3-0.1-23.1,3.9-33.9c4-10.7,10.5-21.5,18.5-29.3"/>
	<path class="st1" d="M41.6,132.7c-2.4-22.7,4.9-46.2,19.7-63.5"/>
	<path class="st1" d="M219.5,58.5c9.8-0.7,19.8,0.4,28.7,4.6s16.5,11.4,19.9,20.6c2.9,7.9,3,17.1,8.6,23.4"/>
	<path class="st1" d="M222.5,62.3c18.2-0.1,36.1,9.7,45.8,25.1"/>
	<path class="st1" d="M228.4,73.9C243.9,75,259,82,269.9,93.2"/>
	<path class="st1" d="M231.9,80.3c2.5-0.6,5.1,0.3,7.5,1.4C251,87,260.3,96.8,272.3,101"/>
	<path class="st1" d="M230.3,90.1c16.3,1.4,29.2,16.1,45.5,17.1"/>
	<path class="st1" d="M238.1,100.6c7.3,4.6,15,9.2,23.5,11.1c2.7,0.6,8.8-0.6,11.4-1.3"/>
	<path class="st1" d="M244,112.1c5.5-0.7,11.1-0.6,16.6,0.2"/>
	<path class="st1" d="M248.7,119.6c1.9-0.9,3.7-1.9,5.5-2.8c1.5-0.8,2.9-1.5,4.5-2c2.1-0.6,4.2-0.7,6.4-0.8"/>
	<path class="st1" d="M334,175.3c2.5-4.3,3.4-9.4,2.5-14.2c-0.2-0.9-0.4-1.8-1.1-2.3c-0.6-0.4-1.5-0.5-2.3-0.6
		c-4.1-0.6-7.7-3.3-10.1-6.6s-3.9-7.2-5.2-11.1c-2.2-6.4-4.1-14.4-0.1-19.9c-3.7,1.2-8,0.4-11-2.2s-4.5-6.7-3.8-10.6
		c-2.4-0.9-4.7-1.9-7.1-2.8c-1.1-0.5-2.2-1-3.1-1.7s-1.6-1.9-1.4-3.1"/>
	<path class="st1" d="M324.2,152.2c-3.8,1.8-8.4,1.9-12.1,0c-3.7-1.9-6.3-6-6.1-10.2c0.3-4.9,4.2-8.9,8.2-11.9"/>
	<path class="st1" d="M335,173.9c-1.3,1.3-3.2,1.9-5,2.1c-3.4,0.3-6.9-0.7-9.5-2.9s-4.1-5.6-3.8-9c0.3-4.2,3.2-7.7,6.2-10.7"/>
	<path class="st1" d="M303,112.1c-2.7,1.6-5.4,3.5-7,6.2c-1.6,2.7-1.9,6.3-0.1,8.9c1.6,2.3,4.6,3.3,7.4,3.6
		c3.5,0.4,7.1,0.1,10.5-0.9"/>
	<path class="st1" d="M290.5,101.4c-2.8,1.8-5.1,4.4-6.6,7.4c-0.5,0.9-0.9,2-0.7,3.1c0.4,1.8,2.6,2.6,4.5,2.9
		c4.7,0.6,9.6-0.3,13.7-2.6c0.2-0.1,0.4-0.2,0.6-0.1c0.1,0,0.2,0.4,0,0.4"/>
	<path class="st1" d="M283.5,112.9c-2.1,1.4-4.1,3.1-5.4,5.3c-1.3,2.2-1.7,5.1-0.5,7.3c0.8,1.6,2.3,2.7,3.9,3.4
		c4.2,1.9,9.4,1.2,13-1.6"/>
	<path class="st1" d="M297,128.9c-2.4,1.6-4.7,3.6-5.9,6.3c-1.2,2.7-1,6.1,0.9,8.3c1.5,1.7,3.8,2.5,6.1,2.6c2.2,0.1,4.5-0.4,6.7-0.9
		"/>
	<path class="st1" d="M316.5,167.1c-4.4,2.3-9.9,2.6-14.5,0.8c-2.9-1.1-5.6-3.2-6.5-6.1c-1-3.2,0.3-6.7,2.4-9.2
		c2.2-2.5,5.1-4.2,7.9-5.9"/>
	<path class="st1" d="M314.2,188c0.3,0.4-0.4,0.8-0.9,0.7c-2.6-0.3-5-1.9-6.4-4.1c-1.3-2.3-1.6-5.2-0.6-7.6c0.6-1.4,1.4-2.5,2.4-3.6
		c1.9-2,4.3-3.7,7-4.7"/>
	<path class="st1" d="M298.6,165.7c-3.4,0.8-5.8,3.8-7.1,7c-0.4,0.9-0.7,1.8-0.7,2.8c0,1.5,0.8,2.9,1.8,4c2.9,3.1,7.8,4,11.6,2.1"/>
	<path class="st1" d="M283,144.9c-3.3,2.1-6.2,8.3-5.8,12.2c0.1,1,0.4,2.1,1,3c0.6,0.8,1.4,1.5,2.2,2c4.5,2.9,10.3,3.5,15.3,1.6"/>
	<path class="st1" d="M277.9,126.7c-4,1.3-6.6,6.1-5.4,10.2c1.3,4.1,6.2,6.6,10.2,5.1"/>
	<path class="st1" d="M268.9,114.2c-1.8,1.6-3.1,3.9-3.5,6.3c-0.2,1.5-0.2,3.2,0.8,4.3c0.7,0.9,1.9,1.3,3,1.6
		c2.5,0.6,5.3,0.7,7.4-0.8"/>
	<path class="st1" d="M266.1,124.3c-2.5,1.5-5.2,3-7,5.3c-1.8,2.4-2.3,6-0.2,8.1c1,0.9,2.2,1.4,3.5,1.7c3.2,0.6,6.5,0.1,9.3-1.4"/>
	<path class="st1" d="M251.9,124.5c-2.4,1.4-4.1,3.9-4.5,6.7c-0.1,0.8-0.1,1.5,0.1,2.2c0.5,1.7,2.2,2.7,3.9,2.9s3.4-0.3,5-0.7"/>
	<path class="st1" d="M266.7,149.9c-2.5,1.1-9.9,1.5-12-0.2s-3-4.7-2.3-7.3s2.8-4.6,4.8-6.3"/>
	<path class="st1" d="M248.9,136c-2.4,1.2-4.4,3-5.8,5.2c-0.8,1.4-1.4,3.2-0.5,4.4c0.5,0.7,1.3,1,2.1,1.2c2.3,0.6,4.7,0.7,7,0.1
		c-0.3,0-0.5,0.1-0.8,0.1"/>
	<path class="st1" d="M267.4,149.4c-0.6-4.1,1.5-8.5,5.2-10.5"/>
	<path class="st1" d="M239.3,132.6c-1.2,0.4-2,1.6-2.6,2.8c-0.9,1.8-1.5,4-0.7,5.9c0.7,1.9,3.2,3.1,4.9,2"/>
	<path class="st1" d="M246.8,157.9c-3.2,1.3-7.3-0.5-8.6-3.8c-1.2-3.3,0.6-7.4,3.8-8.7"/>
	<path class="st1" d="M250.4,157.1c-0.9,0.1-1.7-0.8-1.9-1.8c-0.1-1,0.3-1.9,0.7-2.8c0.7-1.5,1.7-2.8,2.9-3.9"/>
	<path class="st1" d="M227.9,163.8c0.5-4.8,4.7-8.3,9.1-10.2c0.1,0,0.3-0.1,0.4,0s0,0.4-0.1,0.3"/>
	<path class="st1" d="M236.2,141.8c-3.8,0.7-7.2,3.3-8.8,6.8c-0.1,0.2-0.2,0.5-0.2,0.8c0.1,0.5,0.4,0.8,0.8,1.1
		c2.5,1.9,5.7,2.8,8.8,2.4"/>
	<path class="st1" d="M222.9,143c-1.7,0.7-2.2,3-1.2,4.5s3.2,1.8,4.8,1"/>
	<path class="st1" d="M228.2,139.9c1.6,1.1,3.8,1.4,5.6,0.8"/>
	<path class="st1" d="M227.4,149.4c-2.4,1.1-4.6,3-6,5.3c-0.5,0.9-1,1.8-1.1,2.9c-0.2,1.7,0.5,3.4,1.7,4.5c1.3,1.1,3.1,1.5,4.7,1.1"
		/>
	<path class="st1" d="M221.1,146.2c-1.6,0.9-3.2,1.9-4.5,3.2s-2.2,3-2.2,4.9c0,0.3,0.1,0.6,0.2,0.8c0.1,0.3,0.5,0.5,0.9,0.7
		c1.2,0.5,2.6,0.9,3.9,1"/>
	<path class="st1" d="M213.6,166.8c-1.3-0.2-1.3-2-0.9-3.1c1.1-2.6,3.3-4.8,5.9-5.8"/>
	<path class="st1" d="M205.6,154.7c2.3,1.3,5.2,1.4,7.6,0.3"/>
	<path class="st1" d="M207.7,155.9c-2.5,0.8-3.6,4.1-2.5,6.5c1,2.4,3.8,3.8,6.4,3.7"/>
	<path class="st1" d="M197.4,159.3c-0.6,0.2-0.7,1.1-0.3,1.6s1,0.7,1.6,0.9c1.8,0.5,3.6,0.7,5.4,0.5"/>
	<path class="st1" d="M198.2,169.3c0.9-3,3.2-5.5,6.1-6.6"/>
	<path class="st1" d="M278.7,160.7c-2.1,2-4.2,4.2-5.1,7s-0.5,6.2,1.7,8.1c1,0.8,2.2,1.3,3.4,1.7c3.8,1.2,7.9,1.5,11.5,0"/>
	<path class="st1" d="M297.1,195.5c-1.6,1.4-4.1,0.8-5.9-0.4c-2.6-1.8-4.5-4.9-4.7-8.1c-0.2-3.2,1.5-6.5,4.4-8"/>
	<path class="st1" d="M298.3,195.8c-0.5-2.4,0.5-5,2-7s3.6-3.5,5.6-5"/>
	<path class="st1" d="M267.8,154.3c-1.2,1-3.5,3.2-4.5,4.4c-1.3,1.4-2.2,3.2-2.4,5.2c-0.2,2,0.3,4,1.7,5.4c1.2,1.3,2.9,1.9,4.6,2.3
		c1.8,0.4,3.7,0.6,5.5,0.5"/>
	<path class="st1" d="M287.7,189.2c-1.4,0.6-2.8,1.2-4.2,1.8c-2.5,1-5,2.1-7.6,2.3c-2.6,0.2-5.5-0.7-7-2.9c-1.1-1.5-1.3-3.5-1-5.3
		c0.3-1.8,1.1-3.5,2-5.1c1-1.8,2.2-3.4,3.6-5"/>
	<path class="st1" d="M279.4,203.8c-0.1,0.3-0.1,0.6-0.2,0.9c-1-1.8-0.6-4,0.2-5.9c1.4-3.2,3.8-5.9,6.8-7.7"/>
	<path class="st1" d="M261.5,168c-2.3,1.1-4.3,2.5-6.1,4.2c-2.4,2.3-4.4,5.6-3.6,8.9c0.5,2,2,3.6,3.7,4.6s3.8,1.4,5.8,1.5
		c1.7,0.1,3.4,0,5-0.7c-2.2,1.6-2.5,4.2-3.8,6.5c-1.3,2.3-1.5,5.5,0.2,7.5c0.6,0.7,1.5,1.3,2.3,1.7c3.6,1.9,7.8,2.7,11.9,2.1
		c0.2-0.1,0.6-0.1,0.7,0.2s-0.5,0.2-0.3,0"/>
	<path class="st1" d="M245.7,163.4c-0.5,1.1,0.1,2.5,1.1,3.2c1,0.8,2.2,1,3.4,1.2c3.5,0.6,7.1,0.6,10.6,0.2"/>
	<path class="st1" d="M241.7,164.8c-2.2,1.6-4.2,3.7-5.1,6.2c-0.9,2.6-0.7,5.7,1.1,7.7c1,1.1,2.3,1.9,3.7,2.4
		c3.1,1.2,6.5,1.6,9.7,1.1"/>
	<path class="st1" d="M257.4,213.3c-2.4-1.5-2.9-5-1.9-7.6c1-2.6,2.7-5.1,4.9-6.9c-3.1,1.9-6.8,3.2-10.4,2.5
		c-3.6-0.7-6.8-3.9-6.7-7.5c0.1-1.4,0.6-2.7,1.2-4c1.6-3.2,4-6.3,7.5-7.2"/>
	<path class="st1" d="M226.7,169c-1.1,1.7-0.5,4,1,5.4s3.4,2,5.3,2.6c1.1,0.3,2.1,0,3.1,0.3c-2.1,1-3.8,2.7-5.1,4.7
		c-1.2,1.9-2.1,4.2-1.8,6.5c0.4,3.2,2.8,5.9,5.7,7.4c2.8,1.6,6.4,2.2,9.6,2.7c-1.9,2.6-3.3,6-2.1,8.9c0.8,1.8,2.4,3.1,4.2,3.9
		c1.8,0.8,3.8,1.1,5.7,1.4c0.9,0.1,1.9,0.3,2.9,0"/>
	<path class="st1" d="M226.3,171.8c-2.1,0.6-4.1,1.6-5.8,3c-1.1,1-2.2,2.1-2.9,3.4c-1.5,2.9-1.1,6.8,1,9.4c2.1,2.6,7,4.3,10.3,3.7
		c-1.4,1.2-2.7,2.4-3.5,4c-0.9,1.5-1.2,3.4-0.6,5.1c1.1,3,4.5,4.1,7.6,4.9c3,0.8,6.3,1.8,9.5,1.9c-3,2.4-3.8,7.1-1.9,10.4"/>
	<path class="st1" d="M236.2,218.7c-0.1-0.1,0.2-0.1,0.2,0c0,0.1-0.2,0.2-0.3,0.2c-5.1,1-10.8-0.6-14.6-4.2c-1.9-1.8-3.5-4.6-2.5-7
		c0.6-1.5,2-2.5,3.3-3.4c0.8-0.6,2-1.7,2.8-2.3c0.1,0.3,0.5-0.1,0.3-0.3c-0.2-0.2-0.5-0.2-0.8-0.1c-3.2,0.7-6.6,1.5-9.8,0.8
		s-6.3-3.4-6.2-6.7c0-0.9,0.3-1.9,0.7-2.8c1.1-2.8,3.8-6.3,6.4-7.8c-3.1,0.1-6.3-0.6-8.6-2.6s-3.4-5.6-1.9-8.3"/>
	<path class="st1" d="M197,176.6c0.3,1.6,1.6,2.8,3.1,3.4c1.5,0.6,3.1,0.7,4.7,0.7"/>
	<path class="st1" d="M209.4,224.5c1.7-4.8,6-8.9,10.8-10.4c-3.4,0.2-6.8,0.2-10.2-0.1c-2.8-0.3-5.6-0.8-8.1-2.1
		c-1.5-0.8-2.9-2.2-2.7-3.9c0.1-0.8,0.6-1.5,1.1-2.2c2.1-2.8,4.5-5.5,7.5-7.3c-2.8,0.7-5.8,0.5-8.5-0.6c-1.6-0.7-3.1-1.6-4.1-2.9
		c-1.6-2.2-1.9-5.2-1-7.8c0.8-2.6,2.7-4.7,4.9-6.4"/>
	<path class="st1" d="M207.8,224.2c-5.3,0-10.5-1.8-14.8-4.9c-1.7-1.2-3.4-3.1-2.9-5.1c0.4-1.6,2.1-2.6,3.7-3.3
		c1.6-0.7,3.7-2.2,5.4-2.8c-3-0.1-6.1,0.2-9-0.5c-2.9-0.8-5.8-2.8-6.4-5.7c-0.6-2.4,0.6-5.1,2.5-6.8c1.9-1.7,4.1-2.6,6.6-3.3
		c0-0.1,0.1-0.2,0.1-0.3c-3.6,0.4-7.3-0.8-10.1-3.2c-1.7-1.4-3.1-3.7-2.3-5.8"/>
	<path class="st1" d="M180.5,183.1c-2.3,0.3-4.5,0.8-6.5,1.8s-3.8,2.5-4.7,4.6c-0.4,0.9-0.6,2-0.3,3c0.2,0.7,0.7,1.3,1.2,1.8
		c3.2,3.5,7.8,5.2,12.6,5.2c-2.1,0.1-4.2,0.7-6,1.8c-1.3,0.8-2.6,1.9-2.9,3.4c-0.4,2.1,1,4.1,2.6,5.6c3.6,3.3,8,5.5,12.8,6.1
		c-2.7,0.2-5.4,1.5-7.2,3.5c-1.9,2.1-2.8,4.9-2.7,7.6"/>
	<path class="st1" d="M167.7,227.9c3.9-1.4,7.9-2.9,11.9-4.3c-4.5,0.9-9.3,0.5-13.6-1c-3.6-1.3-7.5-4.3-7-8.2c0.4-2.9,3.1-5,5.8-5.9
		c2.8-0.9,5.7-1,8.5-1.8c-5.1,0.9-10.5-0.4-14.6-3.6c-1.2-0.9-2.4-2.2-2.5-3.7c0-0.9,0.3-1.9,0.8-2.7c2.2-3.7,7-4.7,11.2-5.3
		c-4.3,0.3-8.6-1.8-11.1-5.3"/>
	<path class="st1" d="M144.3,191.8c-0.3,1,0.3,2.1,1,3c2.5,3.2,6.2,5.3,10.2,5.8c-2.7,0.3-5.6,0.7-7.9,2.2s-4,4.4-3.1,7
		c0.7,2.1,2.7,3.4,4.6,4.4c2.9,1.5,6.1,2.8,9.3,3.6c-3.7,0.6-7.1,2.7-9.2,5.8c-0.5,0.7-1,1.6-0.8,2.4s5.2,2.8,5.9,2.4"/>
	<path class="st1" d="M143.2,193c-2.9,0-5.9,1.3-7.6,3.6c-1.7,2.4-2.1,5.7-0.7,8.3c1.8,3.2,5.7,4.5,9.2,5.5c-3-0.1-6.1,0.1-8.6,1.8
		c-2.4,1.7-3.8,5.3-2.3,7.8c0.8,1.4,2.3,2.2,3.8,2.9c3.3,1.5,6.7,2.7,10.3,3.4"/>
	<path class="st1" d="M122.6,192c2.1,4,6.1,7,10.5,8c-3.1-0.5-6.5-2.4-9.3-0.9c-2.1,1.1-3,3.8-2.5,6.1c0.4,2.3,1.9,4.3,3.6,6
		c2.1,2.1,4.7,3.9,7.6,4.2c-3.7-0.6-7.8,1.2-9.8,4.5c-1,1.7-1.2,4.3,0.5,5.1"/>
	<path class="st1" d="M117.3,190.9c-0.1-0.2-0.4-0.3-0.7-0.2c-1.5,2-2,4.7-1.2,7.1c0.8,2.4,2.7,4.3,5.1,5.1
		c-1.7-0.3-3.5-0.2-5.1,0.5c-1.5,0.7-2.9,2-3.3,3.7c-0.3,1-0.2,2.1,0,3.2c0.9,4.9,4.5,9.3,9.1,11.1"/>
	<path class="st1" d="M109.1,222.2c1.6-2.3,4.6-3.4,7.3-2.8"/>
	<path class="st1" d="M99.2,217.5c3.8-0.1,7.7,0.8,11.1,2.6c-3.4-1.8-6.5-4.1-9.1-6.8c-0.9-0.9-1.7-1.8-2.1-3
		c-0.3-1.2-0.2-2.6,0.7-3.4c0.7-0.6,1.7-0.8,2.7-0.9c3.2-0.4,6.3-0.2,9.4,0.3c-2.1-0.5-4.1-1.4-5.9-2.5c-1.6-1-3-2.2-3.8-3.8
		c-0.7-1.6-0.7-3.8,0.5-5.1c1.7-1.9,4.7-1.5,7.2-1c1.3,0.3,2.7,0.6,4.1,0.9c-2.1-1.3-4-3.2-5.3-5.3"/>
	<path class="st1" d="M86.5,210.8c3-3.2,8-4.4,12.1-2.7c-1.9-1.5-3.7-3-5.3-4.7c-1.1-1.2-2.2-2.5-2.2-4.1c-0.1-2,1.8-3.7,3.7-4.1
		s4,0,5.9,0.6c-2.8-1.8-4.6-5-4.7-8.3"/>
	<path class="st1" d="M87,210.7c-1.7-1.5-3.4-3-4.7-4.8c-1.2-1.8-2.1-4.1-1.9-6.3c0.2-2.6,2-4.9,4.4-5.9s5.3-0.5,7.3,1.2
		c-1.8-1.6-4.1-3.1-4.5-5.5c-0.8-4.8,2.5-6.1,4.5-7.4"/>
	<path class="st1" d="M89.2,182.8c-0.2-1-1.4-1.4-2.4-1.5c-1.9-0.2-3.7-0.3-5.6-0.2c-1.8,0.1-3.8,0.5-4.9,2c-0.7,1-0.9,2.2-0.9,3.3
		c-0.1,3.8,1.7,7.9,5.3,9.3c-2.2-0.9-4.6-2-7-1.6c-1.8,0.3-3.4,1.3-4.4,2.7"/>
	<path class="st1" d="M75.4,181.5c-2.2-1-4.7-1.7-7-1s-4.2,2.9-4,5.3c0.2,1.8,1.4,3.2,2.6,4.5c1,1.2,2.1,2.3,3.1,3.5"/>
	<path class="st1" d="M63.8,170.1c-1-0.4-1.9,0.8-2.2,1.9c-0.8,3.4,0.7,7.2,3.6,9.1c-3-2.6-8.2-2.3-10.9,0.7"/>
	<path class="st1" d="M61.9,170.9c-0.7-1.5-2.3-2.2-3.8-2.6c-1.4-0.4-3.1-0.7-4.4,0.1c-1.9,1.1-2.1,3.8-1.5,5.9
		c0.6,2,1.7,3.9,3.2,5.4"/>
	<path class="st1" d="M50.8,160.6c-1.1,2.6-0.6,5.7,1.2,7.8c-1.4-1.1-3.1-1.8-4.9-2.1c-1.5-0.2-3.4,0.1-3.8,1.5"/>
	<path class="st1" d="M50.6,160.4c-0.2-0.1,0.1,0.4,0.2,0.2c0.2-0.2,0-0.4-0.1-0.6c-1.8-2-4.1-3.5-6.7-4.3c-1.2-0.4-3-0.4-3.5,0.8
		c-0.2,0.4-0.2,0.9-0.1,1.4c0.3,2.9,1.8,5.7,4,7.7"/>
	<path class="st1" d="M40.4,147.7c-1.1,2.4-0.8,5.5,0.8,7.7c-2-2-4.7-3.2-7.5-3.3"/>
	<path class="st1" d="M40.6,145.7c-1.3-2.7-4.2-4.6-7.3-4.7c-0.4,0-0.9,0-1.3,0.2c-0.7,0.4-1,1.2-1.1,1.9c-0.6,2.9,0.2,5.9,2,8.2"/>
	<path class="st1" d="M31.5,132.7c-1.2,2.2-1,5.1,0.6,7.1c-1.5-2.6-4.1-4.7-7.1-5.5"/>
	<path class="st1" d="M31.6,131.9c-0.7-2.5-2.5-4.6-4.8-5.8c-0.5-0.2-1.1-0.4-1.6-0.3c-0.6,0.1-1,0.7-1.2,1.3
		c-0.8,2.2,0.2,4.5,1.3,6.6"/>
	<path class="st1" d="M378.4,122.9c-0.2-0.7-1.1-0.8-1.8-0.5c-2,0.7-3.6,2.5-4.1,4.5c-0.3,1.3-0.2,2.8,0.9,3.5
		c1,0.7,2.4,0.4,3.4-0.3c2.3-1.6,3.3-4.7,2.4-7.3c-0.3,0.2-0.8,0.1-1.1,0"/>
	<path class="st1" d="M114.7,189.7c10.5,1.7,29-2.4,36.3-10.2"/>
</g>
</svg>
