<?xml version="1.0" encoding="utf-8"?>
<!-- Generator: Adobe Illustrator 20.0.0, SVG Export Plug-In . SVG Version: 6.00 Build 0)  -->
<svg version="1.1" id="Layer_1" xmlns="http://www.w3.org/2000/svg" xmlns:xlink="http://www.w3.org/1999/xlink" x="0px" y="0px"
	 viewBox="0 0 401.2 315.5" style="enable-background:new 0 0 401.2 315.5;" xml:space="preserve">
<style type="text/css">
	.st0{opacity:0.3;}
	.st1{fill:none;stroke:#231F20;stroke-width:1.5;stroke-linecap:round;stroke-linejoin:round;stroke-miterlimit:10;}
</style>
<g class="st0">
	<path class="st1" d="M9.7,114.7c3,14.2,13.6,25.4,24.3,35.1c58.9,53.1,139,81.9,218.2,78.7c15-0.6,30.2-2.4,44.2-7.8
		c14.3-5.5,27-14.8,38.3-25.2c51.9-48.2,74-126.1,55.1-194.3"/>
	<path class="st1" d="M220.8,169.6c-30-19.1-64.3-40.5-94.3-59.6c-11-7-22-14-33.8-19.4c-26.3-12-62.8-21.3-84.8-8.8
		c-3,1.8-3.9,7.3-4.4,10.8c-1.7,12.1-3.2,24.3-2.2,36.5c1.1,12.2,4.8,24.4,12.5,33.9c1.1,1.4,3.2,2.7,4.3,1.3
		c0.8-0.9,0.2-2.3-0.3-3.4c-8.1-16.2-11.2-35-8.8-52.9"/>
	<path class="st1" d="M324.9,176.8c19.3-7.3,34.7-28.5,33.8-49.1c-0.3-6.8-2-13.5-4.3-19.9c-5.4-14.9-14.4-28.6-25.8-39.5"/>
	<path class="st1" d="M322.3,173.1c4.3-5.7,8.5-11.4,12.8-17c1.4-1.8,2.8-3.7,3.7-5.8c3.2-6.9,1.2-14.9-0.8-22.3
		c5.2,2.3,8.9,7.6,9.3,13.2c1.3-1,1.7-2.9,1.1-4.3c4.4,6.9,4.4,16.3,0.1,23.2"/>
	<path class="st1" d="M327.5,66.7c4.1,0.8,8.1,1.9,12,3.4c1.1-4,1.4-8.2,0.7-12.3c2.3,1.5,5.6-0.6,6.4-3.3c0.8-2.7-0.2-5.5-1.1-8.1
		c-1.1-3-2.1-6-3.2-9c-0.3-1-0.7-2.1-0.3-3c1-2.5,5.3-1.1,7.4-2.8c3-2.3-0.2-8.5,3.1-10.3c2.2,0.1,3.8-2.1,4.8-4
		c2.5-4.4,5-8.8,7.4-13.2c0.5-0.9,1.1-1.8,2-2.1c0.7-0.2,1.6,0,2.3,0.2c2.2,0.6,4.5,1.2,6.7,1.8c0.6-0.9,1.2-1.7,1.8-2.6
		c1.4,0.4,2.6,1.3,3.5,2.4c2.4-0.9,4.7-1.9,7.1-2.8c0.7,0.7,1.5,1.4,2.2,2.1"/>
	<path class="st1" d="M293.1,222c28.5,3.4,72.2-3.9,99.3-24.9c4-3.1,8-7.2,7.8-12.2c-8,3.9-19.3-5-25.7,1.1
		c-1.4-3.7-6.6-4.1-10.3-2.7c-1.3,0.5-2.6,1.2-3.9,0.7c-1-0.4-1.7-1.3-2.4-2.1c-2-2.1-4.9-3.1-7.8-2.8"/>
	<path class="st1" d="M154.7,218.6c21.1,35,46,70.5,83,88c4,1.9,8.5,3.5,12.6,2c-1.5-7.7-6.6-14.7-13.4-18.6
		c-4.1-2.4-9.5-4.6-9.8-9.3c-0.1-2.1,0.9-4.2,0.9-6.4c-0.1-3.1-2.5-5.5-4.6-7.8c-10.2-10.9-17.6-24.4-21.2-38.9"/>
	<path class="st1" d="M112.5,101c7.7-8.1,10.6-19.6,17.5-28.3c6.8-8.5,17.2-13.6,27.8-16.1c10.6-2.5,21.7-2.6,32.6-2.7
		c-3.2,1.5-6.3,3.1-9.5,4.6c0.4,1.3,1.2,2.5,2.2,3.5c-3.7-0.2-6.6,3.1-8.1,6.6s-2,7.2-4,10.3c-0.9,1.4-2.2,2.7-2.5,4.4
		c-0.4,2.5,1.6,4.6,3.4,6.4c-4.2,1.5-7.5,5.2-8.7,9.5c1.2-1,3.3-0.8,4.3,0.4c-2.3,0.2-4.7,1.3-5.7,3.4c-1.1,2-0.2,5.1,2.1,5.7
		c-2.6,0-5.3,0.6-7.7,1.6c0.8,2.7,2.6,5,5,6.5c-3,0.6-6,1.2-9.1,1.7c1.1,1.8,2.2,3.6,3.2,5.4c-1.5-0.4-3.2,1.1-2.9,2.7"/>
	<path class="st1" d="M65.7,176.3c-8.2,16.9-15,34.4-20.3,52.4c1.9-0.7,3.8-1.4,5.7-2.1c1.5,9.1,3,18.5,7.6,26.5
		c4.2,7.3,10.5,12.9,16.2,19.1c11.3,12.2,20.1,26.7,25.7,42.4c2-2.6,2.6-6.1,1.5-9.2c1.8,0.6,3.5,1.3,5.3,1.9
		c-0.7-8-2.7-15.9-6-23.2c1.4,0.8,2.9,1.5,4.3,2.3c-4.5-9.3,1.8-20.2,1.5-30.6c-0.4-14.1-13-26.8-9.5-40.5c-1.5,7.4,1.6,15,6.4,20.8
		c4.8,5.8,11.2,9.9,17.5,14c-0.8-10.8-5.9-21.3-13.9-28.6c1.7,1.4,2.8-2.3,1.9-4.4c-3-6.9-5.9-13.8-8.9-20.6"/>
	<path class="st1" d="M19.4,77.6c16.9,1.9,31.1-14.9,48.1-14.8c1.5,0,3.5,0.8,3.2,2.2c-9.5,3.9-15.4,6-24.4,11.1"/>
	<path class="st1" d="M344.1,164.3c43.8-40.9,56.7-110.5,35.3-161.7"/>
	<path class="st1" d="M18.2,115.4c-0.3,4.3,0.2,8.7,1.6,12.8c1.3,4.1,4.6,8.7,8.9,7.9c3.4-0.6,5.3-4.6,4.6-8c-0.7-3.4-3.3-6-6.1-7.9
		s-6.1-3.2-8.9-5.1"/>
	<path class="st1" d="M72.3,180.6c2.1,16.8-6.4,33.2-6.3,50.1c0.1,14.8,7.1,29.5,18.7,38.8c6.5,5.2,14.7,9.3,17.6,17.1"/>
	<path class="st1" d="M76.3,181.6c4.3,14.7-1.8,33.7-0.2,49c1,9.2,5.2,18,11.6,24.6c5.8,5.9,13.7,10.4,16.9,18.1"/>
	<path class="st1" d="M83.9,187.2c4.1,10.4-1.6,22-1.1,33.1c0.7,16.7,13.6,27.2,23,41"/>
	<path class="st1" d="M67.6,178.3c-1.3,12.5,0.3,20.8-6.3,31.5c-3.3,5.3-8.2,11.5-9.5,17.5"/>
	<path class="st1" d="M90.5,189.9c4.1,7.5,8.6,17.3,7.2,25.3"/>
	<path class="st1" d="M164.2,219.9c-1.2,4.2,1,8.8,4.1,11.9c3.1,3.2,6.9,5.4,10.2,8.3c9.2,8.3,12.6,21.2,19.8,31.2
		c4,5.6,9.1,10.2,14.7,14.1c10,6.9,21.6,11.5,33.7,13.3"/>
	<path class="st1" d="M175,222c-1,2.2-0.1,4.8,1.4,6.7c1.5,1.9,3.6,3.2,5.3,4.9c7.7,7.1,9.4,18.5,14.4,27.7
		c6.3,11.6,17,19.3,30.2,20.8"/>
	<path class="st1" d="M184.5,224.6c0.3,4.8,4.5,8.2,7.3,12.1c3.7,5,5.2,11.2,8,16.7c5.5,10.8,16.3,18.8,28.3,21"/>
	<path class="st1" d="M195.3,226.7c1.6,2,2.1,4.5,2.8,7c2.9,9.9,9.4,18.8,17.9,24.7"/>
	<path class="st1" d="M315.9,211.7c17.1-3,32.2-15.3,38.5-31.5"/>
	<path class="st1" d="M311.3,214.7c5.7,1.1,11.5-0.5,16.9-2.7c13.8-5.6,26.4-15.1,33.8-28.1"/>
	<path class="st1" d="M303,218.7c13.9,1.6,29.5-2.7,42.4-8.1s23.1-12.1,29.8-24.5"/>
	<path class="st1" d="M240.4,180.5c7.4,9.2,20.3,12,32.1,11.2s23.2-4.4,34.9-5.4c-1-1.5-2-3.1-3-4.6c4-0.8,8.1-0.6,12,0.7
		c-1.5,0.2-2.1-2.3-0.9-3.3c1.2-1,2.9-0.8,4.5-0.5c3.1,0.6,6.2,1.2,9.3,2c-10.2-8.8-24.1-12.1-37.6-12.4s-26.8,2-40.2,3.2
		c-48.7,4.2-98.6-7.6-140.3-33.1c4.4,6.2,11,10.3,17.7,13.8c22.2,11.6,48,16.8,72.2,23.3c18.3,5.6,37.8-0.3,56.9-2
		c19.2-1.6,38.8,1.2,56.8,8.2"/>
	<path class="st1" d="M208.9,177.1c11.5,8.9,27.3,3.1,38.6,1.5c17.8-2.6,35.5,3.7,53.1,7.1c2,0.4,4,0.7,5.9,0.3"/>
	<path class="st1" d="M327.3,174.7c4-5.8,9-12.4,13-18.2c2.9-4.2,5.8-8.6,6.4-13.7c0.2-2,0-4.1-0.6-6"/>
	<path class="st1" d="M338,169.5c3.3-5.6,7.8-13.4,11-19c1.1-2,2.3-4.2,1.8-6.4"/>
	<path class="st1" d="M366.2,1.7c3,4.8,4.5,10.3,5.8,15.8c4.8,20.4,7.2,41.4,5.4,62.3c-1.8,20.8-7.8,41.5-18.8,59.2"/>
	<path class="st1" d="M356.1,20.4c10.2,14.1,13.2,31,14.2,48.4c0.3,5,0.4,12,0.4,17c-0.2,16.2-5,31.7-12.1,46.2"/>
	<path class="st1" d="M350,31.7c13.9,26.5,19.6,53.6,15.2,83.3"/>
	<path class="st1" d="M341,58.4c8,7.8,14.5,18.6,18.5,29.3c4,10.8,5.8,22.6,3.9,33.9"/>
	<path class="st1" d="M339.9,69.2c14.8,17.3,22.1,40.8,19.7,63.5"/>
	<path class="st1" d="M124.5,107.1c5.6-6.3,5.7-15.5,8.6-23.4c3.4-9.2,11-16.4,19.9-20.6s18.9-5.3,28.7-4.6"/>
	<path class="st1" d="M132.9,87.4c9.7-15.4,27.6-25.2,45.8-25.1"/>
	<path class="st1" d="M131.3,93.2C142.2,82,157.3,75,172.8,73.9"/>
	<path class="st1" d="M128.9,101c12-4.2,21.3-14,32.9-19.3c2.4-1.1,5-2,7.5-1.4"/>
	<path class="st1" d="M125.4,107.2c16.3-1,29.2-15.7,45.5-17.1"/>
	<path class="st1" d="M128.2,110.4c2.6,0.7,8.7,1.9,11.4,1.3c8.5-1.9,16.2-6.5,23.5-11.1"/>
	<path class="st1" d="M140.6,112.3c5.5-0.8,11.1-0.9,16.6-0.2"/>
	<path class="st1" d="M136.1,114c2.2,0.1,4.3,0.2,6.4,0.8c1.6,0.5,3,1.2,4.5,2c1.8,0.9,3.6,1.9,5.5,2.8"/>
	<path class="st1" d="M109.9,100.2c0.2,1.2-0.5,2.4-1.4,3.1s-2,1.2-3.1,1.7c-2.4,0.9-4.7,1.9-7.1,2.8c0.7,3.9-0.8,8-3.8,10.6
		c-3,2.6-7.3,3.4-11,2.2c4,5.5,2.1,13.5-0.1,19.9c-1.3,3.9-2.8,7.8-5.2,11.1c-2.4,3.3-6,6-10.1,6.6c-0.8,0.1-1.7,0.2-2.3,0.6
		c-0.7,0.5-0.9,1.4-1.1,2.3c-0.9,4.8,0,9.9,2.5,14.2"/>
	<path class="st1" d="M87,130.1c4,3,7.9,7,8.2,11.9c0.2,4.2-2.4,8.3-6.1,10.2c-3.7,1.9-8.3,1.8-12.1,0"/>
	<path class="st1" d="M78.3,153.4c3,3,5.9,6.5,6.2,10.7c0.3,3.4-1.2,6.8-3.8,9c-2.6,2.2-6.1,3.2-9.5,2.9c-1.8-0.2-3.7-0.8-5-2.1"/>
	<path class="st1" d="M87.4,129.9c3.4,1,7,1.3,10.5,0.9c2.8-0.3,5.8-1.3,7.4-3.6c1.8-2.6,1.5-6.2-0.1-8.9c-1.6-2.7-4.3-4.6-7-6.2"/>
	<path class="st1" d="M99.2,112.5c-0.2,0-0.1-0.4,0-0.4c0.2-0.1,0.4,0,0.6,0.1c4.1,2.3,9,3.2,13.7,2.6c1.9-0.3,4.1-1.1,4.5-2.9
		c0.2-1.1-0.2-2.2-0.7-3.1c-1.5-3-3.8-5.6-6.6-7.4"/>
	<path class="st1" d="M106.7,127.3c3.6,2.8,8.8,3.5,13,1.6c1.6-0.7,3.1-1.8,3.9-3.4c1.2-2.2,0.8-5.1-0.5-7.3
		c-1.3-2.2-3.3-3.9-5.4-5.3"/>
	<path class="st1" d="M96.4,145.2c2.2,0.5,4.5,1,6.7,0.9c2.3-0.1,4.6-0.9,6.1-2.6c1.9-2.2,2.1-5.6,0.9-8.3c-1.2-2.7-3.5-4.7-5.9-6.3
		"/>
	<path class="st1" d="M95.4,146.7c2.8,1.7,5.7,3.4,7.9,5.9c2.1,2.5,3.4,6,2.4,9.2c-0.9,2.9-3.6,5-6.5,6.1
		c-4.6,1.8-10.1,1.5-14.5-0.8"/>
	<path class="st1" d="M85.5,168.7c2.7,1,5.1,2.7,7,4.7c1,1.1,1.8,2.2,2.4,3.6c1,2.4,0.7,5.3-0.6,7.6c-1.4,2.2-3.8,3.8-6.4,4.1
		c-0.5,0.1-1.2-0.3-0.9-0.7"/>
	<path class="st1" d="M97,181.6c3.8,1.9,8.7,1,11.6-2.1c1-1.1,1.8-2.5,1.8-4c0-1-0.3-1.9-0.7-2.8c-1.3-3.2-3.7-6.2-7.1-7"/>
	<path class="st1" d="M105.5,163.7c5,1.9,10.8,1.3,15.3-1.6c0.8-0.5,1.6-1.2,2.2-2c0.6-0.9,0.9-2,1-3c0.4-3.9-2.5-10.1-5.8-12.2"/>
	<path class="st1" d="M118.5,142c4,1.5,8.9-1,10.2-5.1c1.2-4.1-1.4-8.9-5.4-10.2"/>
	<path class="st1" d="M124.6,125.6c2.1,1.5,4.9,1.4,7.4,0.8c1.1-0.3,2.3-0.7,3-1.6c1-1.1,1-2.8,0.8-4.3c-0.4-2.4-1.7-4.7-3.5-6.3"/>
	<path class="st1" d="M129.5,138c2.8,1.5,6.1,2,9.3,1.4c1.3-0.3,2.5-0.8,3.5-1.7c2.1-2.1,1.6-5.7-0.2-8.1c-1.8-2.3-4.5-3.8-7-5.3"/>
	<path class="st1" d="M144.8,135.6c1.6,0.4,3.3,0.9,5,0.7c1.7-0.2,3.4-1.2,3.9-2.9c0.2-0.7,0.2-1.4,0.1-2.2
		c-0.4-2.8-2.1-5.3-4.5-6.7"/>
	<path class="st1" d="M144,136.1c2,1.7,4.1,3.7,4.8,6.3c0.7,2.6-0.2,5.6-2.3,7.3c-2.1,1.7-9.5,1.3-12,0.2"/>
	<path class="st1" d="M150.3,147c-0.3,0-0.5-0.1-0.8-0.1c2.3,0.6,4.7,0.5,7-0.1c0.8-0.2,1.6-0.5,2.1-1.2c0.9-1.2,0.3-3-0.5-4.4
		c-1.4-2.2-3.4-4-5.8-5.2"/>
	<path class="st1" d="M128.6,138.9c3.7,2,5.8,6.4,5.2,10.5"/>
	<path class="st1" d="M160.3,143.3c1.7,1.1,4.2-0.1,4.9-2c0.8-1.9,0.2-4.1-0.7-5.9c-0.6-1.2-1.4-2.4-2.6-2.8"/>
	<path class="st1" d="M159.2,145.4c3.2,1.3,5,5.4,3.8,8.7c-1.3,3.3-5.4,5.1-8.6,3.8"/>
	<path class="st1" d="M149.1,148.6c1.2,1.1,2.2,2.4,2.9,3.9c0.4,0.9,0.8,1.8,0.7,2.8c-0.2,1-1,1.9-1.9,1.8"/>
	<path class="st1" d="M163.9,153.9c-0.1,0.1-0.2-0.2-0.1-0.3s0.3,0,0.4,0c4.4,1.9,8.6,5.4,9.1,10.2"/>
	<path class="st1" d="M164.4,152.9c3.1,0.4,6.3-0.5,8.8-2.4c0.4-0.3,0.7-0.6,0.8-1.1c0-0.3-0.1-0.6-0.2-0.8c-1.6-3.5-5-6.1-8.8-6.8"
		/>
	<path class="st1" d="M174.7,148.5c1.6,0.8,3.8,0.5,4.8-1c1-1.5,0.5-3.8-1.2-4.5"/>
	<path class="st1" d="M167.4,140.7c1.8,0.6,4,0.3,5.6-0.8"/>
	<path class="st1" d="M174.5,163.2c1.6,0.4,3.4,0,4.7-1.1c1.2-1.1,1.9-2.8,1.7-4.5c-0.1-1.1-0.6-2-1.1-2.9c-1.4-2.3-3.6-4.2-6-5.3"
		/>
	<path class="st1" d="M181.8,156.8c1.3-0.1,2.7-0.5,3.9-1c0.4-0.2,0.8-0.4,0.9-0.7c0.1-0.2,0.2-0.5,0.2-0.8c0-1.9-0.9-3.6-2.2-4.9
		s-2.9-2.3-4.5-3.2"/>
	<path class="st1" d="M182.6,157.9c2.6,1,4.8,3.2,5.9,5.8c0.4,1.1,0.4,2.9-0.9,3.1"/>
	<path class="st1" d="M188,155c2.4,1.1,5.3,1,7.6-0.3"/>
	<path class="st1" d="M189.6,166.1c2.6,0.1,5.4-1.3,6.4-3.7c1.1-2.4,0-5.7-2.5-6.5"/>
	<path class="st1" d="M197.1,162.3c1.8,0.2,3.6,0,5.4-0.5c0.6-0.2,1.2-0.4,1.6-0.9s0.3-1.4-0.3-1.6"/>
	<path class="st1" d="M196.9,162.7c2.9,1.1,5.2,3.6,6.1,6.6"/>
	<path class="st1" d="M111,177.5c3.6,1.5,7.7,1.2,11.5,0c1.2-0.4,2.4-0.9,3.4-1.7c2.2-1.9,2.6-5.3,1.7-8.1c-0.9-2.8-3-5-5.1-7"/>
	<path class="st1" d="M110.3,179c2.9,1.5,4.6,4.8,4.4,8c-0.2,3.2-2.1,6.3-4.7,8.1c-1.8,1.2-4.3,1.8-5.9,0.4"/>
	<path class="st1" d="M95.3,183.8c2,1.5,4.1,3,5.6,5c1.5,2,2.5,4.6,2,7"/>
	<path class="st1" d="M128.5,172.1c1.8,0.1,3.7-0.1,5.5-0.5c1.7-0.4,3.4-1,4.6-2.3c1.4-1.4,1.9-3.4,1.7-5.4s-1.1-3.8-2.4-5.2
		c-1-1.2-3.3-3.4-4.5-4.4"/>
	<path class="st1" d="M127.7,175c1.4,1.6,2.6,3.2,3.6,5c0.9,1.6,1.7,3.3,2,5.1s0.1,3.8-1,5.3c-1.5,2.2-4.4,3.1-7,2.9
		c-2.6-0.2-5.1-1.3-7.6-2.3c-1.4-0.6-2.8-1.2-4.2-1.8"/>
	<path class="st1" d="M115,191.1c3,1.8,5.4,4.5,6.8,7.7c0.8,1.9,1.2,4.1,0.2,5.9c-0.1-0.3-0.1-0.6-0.2-0.9"/>
	<path class="st1" d="M123.9,204.5c0.2,0.2-0.4,0.3-0.3,0c0.1-0.3,0.5-0.3,0.7-0.2c4.1,0.6,8.3-0.2,11.9-2.1c0.8-0.4,1.7-1,2.3-1.7
		c1.7-2,1.5-5.2,0.2-7.5s-1.6-4.9-3.8-6.5c1.6,0.7,3.3,0.8,5,0.7c2-0.1,4.1-0.5,5.8-1.5s3.2-2.6,3.7-4.6c0.8-3.3-1.2-6.6-3.6-8.9
		c-1.8-1.7-3.8-3.1-6.1-4.2"/>
	<path class="st1" d="M140.4,168c3.5,0.4,7.1,0.4,10.6-0.2c1.2-0.2,2.4-0.4,3.4-1.2c1-0.7,1.6-2.1,1.1-3.2"/>
	<path class="st1" d="M150.1,182.2c3.2,0.5,6.6,0.1,9.7-1.1c1.4-0.5,2.7-1.3,3.7-2.4c1.8-2,2-5.1,1.1-7.7c-0.9-2.5-2.9-4.6-5.1-6.2"
		/>
	<path class="st1" d="M149.2,182.6c3.5,0.9,5.9,4,7.5,7.2c0.6,1.3,1.1,2.6,1.2,4c0.1,3.6-3.1,6.8-6.7,7.5c-3.6,0.7-7.3-0.6-10.4-2.5
		c2.2,1.8,3.9,4.3,4.9,6.9c1,2.6,0.5,6.1-1.9,7.6"/>
	<path class="st1" d="M146,212.8c1,0.3,2,0.1,2.9,0c1.9-0.3,3.9-0.6,5.7-1.4c1.8-0.8,3.4-2.1,4.2-3.9c1.2-2.9-0.2-6.3-2.1-8.9
		c3.2-0.5,6.8-1.1,9.6-2.7c2.9-1.5,5.3-4.2,5.7-7.4c0.3-2.3-0.6-4.6-1.8-6.5c-1.3-2-3-3.7-5.1-4.7c1-0.3,2,0,3.1-0.3
		c1.9-0.6,3.8-1.2,5.3-2.6s2.1-3.7,1-5.4"/>
	<path class="st1" d="M161.2,217.6c1.9-3.3,1.1-8-1.9-10.4c3.2-0.1,6.5-1.1,9.5-1.9c3.1-0.8,6.5-1.9,7.6-4.9
		c0.6-1.7,0.3-3.6-0.6-5.1c-0.8-1.6-2.1-2.8-3.5-4c3.3,0.6,8.2-1.1,10.3-3.7c2.1-2.6,2.5-6.5,1-9.4c-0.7-1.3-1.8-2.4-2.9-3.4
		c-1.7-1.4-3.7-2.4-5.8-3"/>
	<path class="st1" d="M196,174.2c1.5,2.7,0.4,6.3-1.9,8.3s-5.5,2.7-8.6,2.6c2.6,1.5,5.3,5,6.4,7.8c0.4,0.9,0.7,1.9,0.7,2.8
		c0.1,3.3-3,6-6.2,6.7c-3.2,0.7-6.6-0.1-9.8-0.8c-0.3-0.1-0.6-0.1-0.8,0.1c-0.2,0.2,0.2,0.6,0.3,0.3c0.8,0.6,2,1.7,2.8,2.3
		c1.3,0.9,2.7,1.9,3.3,3.4c1,2.4-0.6,5.2-2.5,7c-3.8,3.6-9.5,5.2-14.6,4.2c-0.1,0-0.3-0.1-0.3-0.2c0-0.1,0.3-0.1,0.2,0"/>
	<path class="st1" d="M196.4,180.7c1.6,0,3.2-0.1,4.7-0.7c1.5-0.6,2.8-1.8,3.1-3.4"/>
	<path class="st1" d="M202.1,180.8c2.2,1.7,4.1,3.8,4.9,6.4c0.9,2.6,0.6,5.6-1,7.8c-1,1.3-2.5,2.2-4.1,2.9c-2.7,1.1-5.7,1.3-8.5,0.6
		c3,1.8,5.4,4.5,7.5,7.3c0.5,0.7,1,1.4,1.1,2.2c0.2,1.7-1.2,3.1-2.7,3.9c-2.5,1.3-5.3,1.8-8.1,2.1c-3.4,0.3-6.8,0.3-10.2,0.1
		c4.8,1.5,9.1,5.6,10.8,10.4"/>
	<path class="st1" d="M220.6,182.5c0.8,2.1-0.6,4.4-2.3,5.8c-2.8,2.4-6.5,3.6-10.1,3.2c0,0.1,0.1,0.2,0.1,0.3
		c2.5,0.7,4.7,1.6,6.6,3.3c1.9,1.7,3.1,4.4,2.5,6.8c-0.6,2.9-3.5,4.9-6.4,5.7c-2.9,0.7-6,0.4-9,0.5c1.7,0.6,3.8,2.1,5.4,2.8
		c1.6,0.7,3.3,1.7,3.7,3.3c0.5,2-1.2,3.9-2.9,5.1c-4.3,3.1-9.5,4.9-14.8,4.9"/>
	<path class="st1" d="M221.8,227.5c0.1-2.7-0.8-5.5-2.7-7.6c-1.8-2-4.5-3.3-7.2-3.5c4.8-0.6,9.2-2.8,12.8-6.1c1.6-1.5,3-3.5,2.6-5.6
		c-0.3-1.5-1.6-2.6-2.9-3.4c-1.8-1.1-3.9-1.7-6-1.8c4.8,0,9.4-1.7,12.6-5.2c0.5-0.5,1-1.1,1.2-1.8c0.3-1,0.1-2.1-0.3-3
		c-0.9-2.1-2.7-3.6-4.7-4.6c-2-1-4.2-1.5-6.5-1.8"/>
	<path class="st1" d="M244.1,186.1c-2.5,3.5-6.8,5.6-11.1,5.3c4.2,0.6,9,1.6,11.2,5.3c0.5,0.8,0.8,1.8,0.8,2.7
		c-0.1,1.5-1.3,2.8-2.5,3.7c-4.1,3.2-9.5,4.5-14.6,3.6c2.8,0.8,5.7,0.9,8.5,1.8c2.7,0.9,5.4,3,5.8,5.9c0.5,3.9-3.4,6.9-7,8.2
		c-4.3,1.5-9.1,1.9-13.6,1c4,1.4,8,2.9,11.9,4.3"/>
	<path class="st1" d="M246.9,228.4c0.7,0.4,5.7-1.6,5.9-2.4s-0.3-1.7-0.8-2.4c-2.1-3.1-5.5-5.2-9.2-5.8c3.2-0.8,6.4-2.1,9.3-3.6
		c1.9-1,3.9-2.3,4.6-4.4c0.9-2.6-0.8-5.5-3.1-7c-2.3-1.5-5.2-1.9-7.9-2.2c4-0.5,7.7-2.6,10.2-5.8c0.7-0.9,1.3-2,1-3"/>
	<path class="st1" d="M253.9,226.3c3.6-0.7,7-1.9,10.3-3.4c1.5-0.7,3-1.5,3.8-2.9c1.5-2.5,0.1-6.1-2.3-7.8c-2.5-1.7-5.6-1.9-8.6-1.8
		c3.5-1,7.4-2.3,9.2-5.5c1.4-2.6,1-5.9-0.7-8.3c-1.7-2.3-4.7-3.6-7.6-3.6"/>
	<path class="st1" d="M278,225c1.7-0.8,1.5-3.4,0.5-5.1c-2-3.3-6.1-5.1-9.8-4.5c2.9-0.3,5.5-2.1,7.6-4.2c1.7-1.7,3.2-3.7,3.6-6
		c0.5-2.3-0.4-5-2.5-6.1c-2.8-1.5-6.2,0.4-9.3,0.9c4.4-1,8.4-4,10.5-8"/>
	<path class="st1" d="M280,221.4c4.6-1.8,8.2-6.2,9.1-11.1c0.2-1.1,0.3-2.2,0-3.2c-0.4-1.7-1.8-3-3.3-3.7c-1.6-0.7-3.4-0.8-5.1-0.5
		c2.4-0.8,4.3-2.7,5.1-5.1c0.8-2.4,0.3-5.1-1.2-7.1c-0.3-0.1-0.6,0-0.7,0.2"/>
	<path class="st1" d="M284.8,219.4c2.7-0.6,5.7,0.5,7.3,2.8"/>
	<path class="st1" d="M292.5,189.5c-1.3,2.1-3.2,4-5.3,5.3c1.4-0.3,2.8-0.6,4.1-0.9c2.5-0.5,5.5-0.9,7.2,1c1.2,1.3,1.2,3.5,0.5,5.1
		c-0.8,1.6-2.2,2.8-3.8,3.8c-1.8,1.1-3.8,2-5.9,2.5c3.1-0.5,6.2-0.7,9.4-0.3c1,0.1,2,0.3,2.7,0.9c0.9,0.8,1,2.2,0.7,3.4
		c-0.4,1.2-1.2,2.1-2.1,3c-2.6,2.7-5.7,5-9.1,6.8c3.4-1.8,7.3-2.7,11.1-2.6"/>
	<path class="st1" d="M305.2,187.5c-0.1,3.3-1.9,6.5-4.7,8.3c1.9-0.6,4-1,5.9-0.6s3.8,2.1,3.7,4.1c0,1.6-1.1,2.9-2.2,4.1
		c-1.6,1.7-3.4,3.2-5.3,4.7c4.1-1.7,9.1-0.5,12.1,2.7"/>
	<path class="st1" d="M309.1,182c2,1.3,5.3,2.6,4.5,7.4c-0.4,2.4-2.7,3.9-4.5,5.5c2-1.7,4.9-2.2,7.3-1.2s4.2,3.3,4.4,5.9
		c0.2,2.2-0.7,4.5-1.9,6.3c-1.3,1.8-3,3.3-4.7,4.8"/>
	<path class="st1" d="M331.9,196.8c-1-1.4-2.6-2.4-4.4-2.7c-2.4-0.4-4.8,0.7-7,1.6c3.6-1.4,5.4-5.5,5.3-9.3c0-1.1-0.2-2.3-0.9-3.3
		c-1.1-1.5-3.1-1.9-4.9-2c-1.9-0.1-3.7,0-5.6,0.2c-1,0.1-2.2,0.5-2.4,1.5"/>
	<path class="st1" d="M331.1,193.8c1-1.2,2.1-2.3,3.1-3.5c1.2-1.3,2.4-2.7,2.6-4.5c0.2-2.4-1.7-4.6-4-5.3c-2.3-0.7-4.8,0-7,1"/>
	<path class="st1" d="M346.9,181.8c-2.7-3-7.9-3.3-10.9-0.7c2.9-1.9,4.4-5.7,3.6-9.1c-0.3-1.1-1.2-2.3-2.2-1.9"/>
	<path class="st1" d="M345.8,179.7c1.5-1.5,2.6-3.4,3.2-5.4c0.6-2.1,0.4-4.8-1.5-5.9c-1.3-0.8-3-0.5-4.4-0.1
		c-1.5,0.4-3.1,1.1-3.8,2.6"/>
	<path class="st1" d="M357.9,167.8c-0.4-1.4-2.3-1.7-3.8-1.5c-1.8,0.3-3.5,1-4.9,2.1c1.8-2.1,2.3-5.2,1.2-7.8"/>
	<path class="st1" d="M356.8,165.6c2.2-2,3.7-4.8,4-7.7c0.1-0.5,0.1-1-0.1-1.4c-0.5-1.2-2.3-1.2-3.5-0.8c-2.6,0.8-4.9,2.3-6.7,4.3
		c-0.1,0.2-0.3,0.4-0.1,0.6c0.1,0.2,0.4-0.3,0.2-0.2"/>
	<path class="st1" d="M367.5,152.1c-2.8,0.1-5.5,1.3-7.5,3.3c1.6-2.2,1.9-5.3,0.8-7.7"/>
	<path class="st1" d="M368.3,151.3c1.8-2.3,2.6-5.3,2-8.2c-0.1-0.7-0.4-1.5-1.1-1.9c-0.4-0.2-0.9-0.2-1.3-0.2c-3.1,0.1-6,2-7.3,4.7"
		/>
	<path class="st1" d="M376.2,134.3c-3,0.8-5.6,2.9-7.1,5.5c1.6-2,1.8-4.9,0.6-7.1"/>
	<path class="st1" d="M375.9,133.7c1.1-2.1,2.1-4.4,1.3-6.6c-0.2-0.6-0.6-1.2-1.2-1.3c-0.5-0.1-1.1,0.1-1.6,0.3
		c-2.3,1.2-4.1,3.3-4.8,5.8"/>
	<path class="st1" d="M23.1,122.8c-0.3,0.1-0.8,0.2-1.1,0c-0.9,2.6,0.1,5.7,2.4,7.3c1,0.7,2.4,1,3.4,0.3c1.1-0.7,1.2-2.2,0.9-3.5
		c-0.5-2-2.1-3.8-4.1-4.5c-0.7-0.3-1.6-0.2-1.8,0.5"/>
	<path class="st1" d="M250.2,179.5c7.3,7.8,25.8,11.9,36.3,10.2"/>
</g>
</svg>
