<?xml version="1.0" encoding="utf-8"?>
<!-- Generator: Adobe Illustrator 20.0.0, SVG Export Plug-In . SVG Version: 6.00 Build 0)  -->
<svg version="1.1" id="Layer_1" xmlns="http://www.w3.org/2000/svg" xmlns:xlink="http://www.w3.org/1999/xlink" x="0px" y="0px"
	 viewBox="0 0 327.4 74.7" style="enable-background:new 0 0 327.4 74.7;" xml:space="preserve">
<style type="text/css">
	.st0{stroke:#000000;stroke-width:2.9454;}
	.st1{fill:#FFFFFF;stroke:#000000;stroke-width:2.9454;}
</style>
<g>
	<path class="st0" d="M29.9,7c6.3,0,11.2,2.1,14.6,6.2s5.2,10,5.2,17.5c0,4.1-0.6,8.3-1.7,12.5s-2.6,8-4.6,11.2
		c-2.4,3.9-5.4,6.8-8.8,8.9c-3.5,2-7.4,3-11.7,3c-6.3,0-11.2-2.4-14.7-7.3S2.9,47.6,2.9,39.3c0-9.5,2.5-17.3,7.5-23.3S21.9,7,29.9,7
		z M26.2,56.1c2.4,0,4.1-1.6,5.3-4.9c1.2-3.3,1.7-8.6,1.7-16.2c0-6.5-0.5-11-1.5-13.8c-1-2.7-2.7-4.1-5.2-4.1
		c-2.4,0-4.3,1.7-5.6,5.2S19,30.7,19,37c0,6,0.6,10.7,1.9,14C22.1,54.5,23.9,56.1,26.2,56.1z"/>
	<path class="st0" d="M71.5,65.6c-5.6,0-9.8-1.9-12.7-5.6c-2.9-3.7-4.3-9.1-4.3-16.1c0-3.8,0.4-7.8,1.2-12s1.6-7,2.4-8.6
		c1.2-0.3,2.4-0.6,3.7-0.7c1.2-0.2,2.4-0.2,3.4-0.2c1.6,0,3,0.1,4.2,0.3s2.1,0.5,2.7,0.9c-0.5,2.8-0.8,5.7-1.1,8.7
		c-0.3,2.9-0.4,5.8-0.4,8.5c0,4.8,0.3,8.6,0.9,11.3s1.4,4.1,2.4,4.1s1.8-1.5,2.4-4.7c0.6-3.1,0.9-7.1,0.9-12.1
		c0-2.4-0.1-4.8-0.3-7.4c-0.2-2.5-0.4-4.3-0.6-5.3c2-0.8,4.5-1.5,7.4-2s5.8-0.7,8.6-0.7c0.3,1.2,0.5,2.8,0.6,4.7s0.2,3.9,0.2,6.1
		c0,10.1-1.8,17.8-5.4,23C83.9,63,78.6,65.6,71.5,65.6z"/>
	<path class="st0" d="M119.7,46.5c1.8,0.2,3.6,0.7,5.5,1.4s3.5,1.7,5,2.8c0,3.8-1.2,7-3.5,9.6c-2.4,2.6-5.7,3.9-9.9,3.9
		c-5.3,0-9.4-1.9-12.3-5.6c-2.9-3.8-4.4-9.2-4.4-16.4c0-1.7,0-3.4,0.1-5.2s0.2-3.7,0.3-5.7c-1.1-0.2-2-0.3-3-0.6
		c-0.9-0.2-1.8-0.4-2.5-0.6c0-1.7,0.2-3.3,0.5-4.8s0.8-2.7,1.3-3.5c0.5,0.2,1.2,0.3,1.9,0.5c0.8,0.2,1.7,0.4,2.8,0.5
		c0.3-2.2,0.6-4,1-5.6c0.3-1.6,0.7-3,1.1-4.3c3.2,0,6.2,0.2,9.2,0.6c3,0.4,5.4,0.9,7.2,1.5c-0.3,1.3-0.7,2.7-1,4.2
		c-0.4,1.6-0.7,3.1-0.9,4.8c2.2,0.1,4.3,0,6.3,0c2-0.1,3.8-0.2,5.3-0.4c0,1.2-0.1,2.6-0.4,4.1c-0.3,1.5-0.6,2.9-1.1,4.2
		c-1.3,0.3-3,0.5-5,0.6s-4.2,0.2-6.5,0.1c-0.3,2-0.5,4-0.6,6c-0.2,2-0.2,3.9-0.2,5.7c0,4.4,0.2,7.4,0.5,8.9c0.3,1.6,0.8,2.3,1.6,2.3
		c0.5,0,0.9-0.8,1.3-2.4C119.5,51.5,119.7,49.3,119.7,46.5z"/>
	<path class="st0" d="M171.4,58.4c0.4,1.4,0.8,3.3,1.2,5.8c0.4,2.5,0.6,4.6,0.6,6.3c-5.2,0-10.2,0.2-14.9,0.6
		c-4.8,0.4-10.7,1.1-17.8,2c-1.3-7.8-2.4-17.8-3.4-29.8s-1.5-22-1.5-30c2.4-0.6,4.8-1.1,7.1-1.4c2.3-0.3,4.7-0.5,7-0.5
		c0.7,0,1.4,0,2,0c0.7,0,1.4,0.1,2.1,0.2c-0.4,2.6-0.8,6.1-1,10.5c-0.3,4.4-0.4,9.1-0.4,14c0,7.1,0.1,12.5,0.3,15.9
		c0.2,3.5,0.5,6.4,0.9,8.9c2.9-0.8,6-1.5,9.1-2C165.9,58.7,168.8,58.4,171.4,58.4z"/>
	<path class="st0" d="M178.7,25.1c1.4-0.8,3.1-1.5,5-1.9s3.9-0.6,6.1-0.6c1.1,0,2.1,0.1,3.1,0.2s2,0.2,3,0.4
		c-1.2,3.4-2.2,8.9-3,16.3c-0.9,7.5-1.5,15.6-1.8,24.5c-1.1,0.6-2.5,1-4.2,1.4c-1.7,0.3-3.5,0.5-5.3,0.5c-0.8,0-1.5,0-2-0.1
		c-0.6-0.1-1.1-0.1-1.5-0.2c-0.8-7.5-1.1-14.7-1-21.6C177.1,37,177.6,30.7,178.7,25.1z M189.7,5.2c1.6,0,3,0.1,4.4,0.4
		s2.5,0.6,3.5,1.1c-0.5,1.1-1,2.7-1.6,4.8s-1,4-1.3,5.6c-1.8,0.3-3.8,0.5-6,0.7c-2.2,0.1-4.7,0.2-7.5,0.1c-0.4-1.2-0.6-2.3-0.8-3.5
		s-0.3-2.3-0.3-3.4c0-0.8,0-1.6,0.1-2.2s0.2-1.2,0.4-1.7c1.2-0.7,2.6-1.2,4.1-1.5S187.8,5.2,189.7,5.2z"/>
	<path class="st0" d="M216.6,57c0,1.5,0,2.9,0,4.4c0,1.4,0.1,3.2,0.2,5.2c-1.5,0.4-3.5,0.8-6,1.1s-4.9,0.5-7,0.5
		c-0.8-5.7-1.5-13.1-2.1-22.1s-0.9-16.5-0.9-22.6c1.2-0.6,2.9-1.1,5.1-1.5c2.2-0.4,4.5-0.6,6.8-0.6c1.1,0,2.1,0.1,3.1,0.2
		s2,0.3,3,0.5c-0.3,1.9-0.4,3.3-0.6,4.1c-0.1,0.8-0.2,1.7-0.2,2.5c1.5-2.2,3.3-3.9,5.2-5s4.1-1.7,6.4-1.7c3.7,0,6.5,1.3,8.4,4
		s2.8,6.6,2.8,11.8c0,4.1-0.3,8.8-1,14.2c-0.7,5.3-1.4,9.4-2.1,12.1c-2,0-4.3-0.1-6.8-0.4c-2.5-0.2-5.3-0.6-8.5-1.1
		c0.9-4.9,1.6-9.6,2.1-13.8c0.5-4.3,0.7-7.8,0.7-10.4c0-1.5-0.2-2.6-0.6-3.3c-0.4-0.7-1.1-1.1-2-1.1c-1,0-2,0.6-2.9,1.7
		c-0.9,1.2-1.8,2.8-2.5,4.8c-0.2,3.3-0.4,6.3-0.4,9.1C216.7,52.3,216.6,54.8,216.6,57z"/>
	<path class="st0" d="M273.4,49.7c2,0.4,4,1.1,6.1,2.2c2.1,1.1,3.8,2.3,5.1,3.7c-0.4,1.4-1.4,2.8-2.9,4.4c-1.5,1.6-3.3,2.9-5.4,3.9
		c-1.7,0.8-3.5,1.5-5.5,1.9s-4,0.7-6.2,0.7c-5.5,0-9.7-1.6-12.8-4.8s-4.6-7.5-4.6-13c0-3.4,0.5-6.8,1.6-10.1s2.6-6.3,4.6-8.9
		c2.3-3,4.9-5.3,7.8-7s6-2.5,9.1-2.5c4.4,0,7.9,1.1,10.6,3.4c2.6,2.2,3.9,5.2,3.9,8.9c0,1.7-0.2,3.5-0.5,5.6c-0.3,2-0.8,3.8-1.3,5.2
		c-1.6,0.8-3.6,1.4-6,1.8c-2.4,0.4-5.2,0.6-8.6,0.6c-0.9,0-1.9-0.1-2.8-0.2c-0.9-0.1-1.8-0.2-2.7-0.4c-0.1,0.3-0.1,0.7-0.1,1.1
		c0,0.4,0,1,0,1.8c0,3.2,0.4,5.6,1.2,7.3c0.8,1.7,2,2.5,3.5,2.5c1,0,2.1-0.8,3.2-2.4C271.8,53.6,272.7,51.8,273.4,49.7z M263.8,37.5
		c0.6,0.2,1.2,0.3,1.9,0.4c0.6,0.1,1.1,0.1,1.5,0.1s0.9,0,1.5,0s0.9-0.1,1.1-0.1c0.3-1.3,0.6-2.4,0.7-3.5c0.2-1.1,0.3-2.1,0.3-3
		c0-1.1-0.1-1.9-0.4-2.4s-0.7-0.8-1.3-0.8c-1.1,0-2,0.9-3,2.6C265.2,32.3,264.4,34.6,263.8,37.5z"/>
	<path class="st0" d="M311.9,38.3c4.7,2.8,7.9,5.4,9.5,7.6c1.6,2.3,2.4,4.8,2.4,7.6c0,4.3-1.8,7.8-5.5,10.6s-8.2,4.2-13.5,4.2
		c-4.5,0-8.3-1.4-11.4-4.1c-3-2.7-4.6-6-4.6-9.7c1.2-0.6,2.8-1.1,4.8-1.5s3.8-0.6,5.4-0.6c0,2.3,0.5,4.2,1.5,5.6
		c1,1.4,2.4,2.1,4.1,2.1c1.3,0,2.3-0.3,3-0.9c0.7-0.6,1-1.4,1-2.5s-0.4-2.2-1.3-3.2c-0.9-1.1-2.8-2.5-5.8-4.3
		c-4.5-2.8-7.4-5.2-8.9-7.4c-1.5-2.1-2.2-4.5-2.2-7.2c0-4.2,1.6-7.7,4.8-10.4c3.2-2.8,7.4-4.1,12.4-4.1s9.1,1.1,12.2,3.3
		s5.1,5.3,6,9.3c-1.5,1-3.3,1.8-5.2,2.3c-1.9,0.6-4.5,0.9-7.6,1.1c-0.4-2.5-0.9-4.3-1.7-5.4c-0.8-1.1-1.8-1.7-3.1-1.7
		c-0.9,0-1.6,0.3-2.1,0.8s-0.7,1.2-0.7,2.1c0,0.8,0.4,1.7,1.2,2.6S309.1,36.7,311.9,38.3z"/>
</g>
<g>
	<path class="st1" d="M28.5,3.3c6.3,0,11.2,2.1,14.6,6.2c3.4,4.1,5.2,10,5.2,17.5c0,4.1-0.6,8.3-1.7,12.5s-2.6,8-4.6,11.2
		c-2.4,3.9-5.4,6.8-8.8,8.9c-3.5,2-7.4,3-11.7,3c-6.3,0-11.2-2.4-14.7-7.3S1.5,43.9,1.5,35.6C1.5,26.1,4,18.3,9,12.3
		C13.9,6.4,20.4,3.3,28.5,3.3z M24.8,52.5c2.4,0,4.1-1.6,5.3-4.9c1.2-3.3,1.7-8.6,1.7-16.2c0-6.5-0.5-11-1.5-13.8
		c-1-2.7-2.7-4.1-5.2-4.1c-2.4,0-4.3,1.7-5.6,5.2s-1.9,8.4-1.9,14.7c0,6,0.6,10.7,1.9,14C20.7,50.8,22.4,52.5,24.8,52.5z"/>
	<path class="st1" d="M70,61.9c-5.6,0-9.8-1.9-12.7-5.6c-2.9-3.7-4.3-9.1-4.3-16.1c0-3.8,0.4-7.8,1.2-12s1.6-7,2.4-8.6
		c1.2-0.3,2.4-0.6,3.7-0.7c1.2-0.2,2.4-0.2,3.4-0.2c1.6,0,3,0.1,4.2,0.3s2.1,0.5,2.7,0.9c-0.5,2.8-0.8,5.7-1.1,8.7
		c-0.3,2.9-0.4,5.8-0.4,8.5c0,4.8,0.3,8.6,0.9,11.3s1.4,4.1,2.4,4.1s1.8-1.5,2.4-4.7c0.6-3.1,0.9-7.1,0.9-12.1
		c0-2.4-0.1-4.8-0.3-7.4C75.2,25.8,75,24,74.8,23c2-0.8,4.5-1.5,7.4-2s5.8-0.7,8.6-0.7c0.3,1.2,0.5,2.8,0.6,4.7s0.2,3.9,0.2,6.1
		c0,10.1-1.8,17.8-5.4,23C82.5,59.3,77.1,61.9,70,61.9z"/>
	<path class="st1" d="M118.3,42.8c1.8,0.2,3.6,0.7,5.5,1.4s3.5,1.7,5,2.8c0,3.8-1.2,7-3.5,9.6c-2.4,2.6-5.7,3.9-9.9,3.9
		c-5.3,0-9.4-1.9-12.3-5.6c-2.9-3.8-4.4-9.2-4.4-16.4c0-1.7,0-3.4,0.1-5.2s0.2-3.7,0.3-5.7c-1.1-0.2-2-0.3-3-0.6
		c-0.9-0.2-1.8-0.4-2.5-0.6c0-1.7,0.2-3.3,0.5-4.8s0.8-2.7,1.3-3.5c0.5,0.2,1.2,0.3,1.9,0.5c0.8,0.2,1.7,0.4,2.8,0.5
		c0.3-2.2,0.6-4,1-5.6c0.3-1.6,0.7-3,1.1-4.3c3.2,0,6.2,0.2,9.2,0.6s5.4,0.9,7.2,1.5c-0.3,1.3-0.7,2.7-1,4.2
		c-0.4,1.6-0.7,3.1-0.9,4.8c2.2,0.1,4.3,0,6.3,0c2-0.1,3.8-0.2,5.3-0.4c0,1.2-0.1,2.6-0.4,4.1c-0.3,1.5-0.6,2.9-1.1,4.2
		c-1.3,0.3-3,0.5-5,0.6s-4.2,0.2-6.5,0.1c-0.3,2-0.5,4-0.6,6c-0.2,2-0.2,3.9-0.2,5.7c0,4.4,0.2,7.4,0.5,8.9c0.3,1.6,0.8,2.3,1.6,2.3
		c0.5,0,0.9-0.8,1.3-2.4C118,47.8,118.2,45.6,118.3,42.8z"/>
	<path class="st1" d="M170,54.7c0.4,1.4,0.8,3.3,1.2,5.8s0.6,4.6,0.6,6.3c-5.2,0-10.2,0.2-14.9,0.6c-4.8,0.4-10.7,1.1-17.8,2
		c-1.3-7.8-2.4-17.8-3.4-29.8s-1.5-22-1.5-30c2.4-0.6,4.8-1.1,7.1-1.4s4.7-0.5,7-0.5c0.7,0,1.4,0,2,0c0.7,0,1.4,0.1,2.1,0.2
		c-0.4,2.6-0.8,6.1-1,10.5c-0.3,4.4-0.4,9.1-0.4,14c0,7.1,0.1,12.5,0.3,15.9c0.2,3.5,0.5,6.4,0.9,8.9c2.9-0.8,6-1.5,9.1-2
		C164.5,55,167.3,54.7,170,54.7z"/>
	<path class="st1" d="M177.2,21.4c1.4-0.8,3.1-1.5,5-1.9s3.9-0.6,6.1-0.6c1.1,0,2.1,0.1,3.1,0.2s2,0.2,3,0.4
		c-1.2,3.4-2.2,8.9-3,16.3c-0.9,7.5-1.5,15.6-1.8,24.5c-1.1,0.6-2.5,1-4.2,1.4c-1.7,0.3-3.5,0.5-5.3,0.5c-0.8,0-1.5,0-2-0.1
		c-0.6-0.1-1.1-0.1-1.5-0.2c-0.8-7.5-1.1-14.7-1-21.6C175.6,33.3,176.2,27,177.2,21.4z M188.2,1.5c1.6,0,3,0.1,4.4,0.4
		s2.5,0.6,3.5,1.1c-0.5,1.1-1,2.7-1.6,4.8s-1,4-1.3,5.6c-1.8,0.3-3.8,0.5-6,0.7c-2.2,0.1-4.7,0.2-7.5,0.1c-0.4-1.2-0.6-2.3-0.8-3.5
		s-0.3-2.3-0.3-3.4c0-0.8,0-1.6,0.1-2.2s0.2-1.2,0.4-1.7c1.2-0.7,2.6-1.2,4.1-1.5C184.7,1.7,186.3,1.5,188.2,1.5z"/>
	<path class="st1" d="M215.1,53.3c0,1.5,0,2.9,0,4.4c0,1.4,0.1,3.2,0.2,5.2c-1.5,0.4-3.5,0.8-6,1.1c-2.5,0.3-4.9,0.5-7,0.5
		c-0.8-5.7-1.5-13.1-2.1-22.1s-0.9-16.5-0.9-22.6c1.2-0.6,2.9-1.1,5.1-1.5c2.2-0.4,4.5-0.6,6.8-0.6c1.1,0,2.1,0.1,3.1,0.2
		s2,0.3,3,0.5c-0.3,1.9-0.4,3.3-0.6,4.1c-0.1,0.8-0.2,1.7-0.2,2.5c1.5-2.2,3.3-3.9,5.2-5s4.1-1.7,6.4-1.7c3.7,0,6.5,1.3,8.4,4
		s2.8,6.6,2.8,11.8c0,4.1-0.3,8.8-1,14.2c-0.7,5.3-1.4,9.4-2.1,12.1c-2,0-4.3-0.1-6.8-0.4c-2.5-0.2-5.3-0.6-8.5-1.1
		c0.9-4.9,1.6-9.6,2.1-13.8c0.5-4.3,0.7-7.8,0.7-10.4c0-1.5-0.2-2.6-0.6-3.3c-0.4-0.7-1.1-1.1-2-1.1c-1,0-2,0.6-2.9,1.7
		c-0.9,1.2-1.8,2.8-2.5,4.8c-0.2,3.3-0.4,6.3-0.4,9.1C215.2,48.6,215.1,51.1,215.1,53.3z"/>
	<path class="st1" d="M271.9,46c2,0.4,4,1.1,6.1,2.2c2.1,1.1,3.8,2.3,5.1,3.7c-0.4,1.4-1.4,2.8-2.9,4.4c-1.5,1.6-3.3,2.9-5.4,3.9
		c-1.7,0.8-3.5,1.5-5.5,1.9s-4,0.7-6.2,0.7c-5.5,0-9.7-1.6-12.8-4.8s-4.6-7.5-4.6-13c0-3.4,0.5-6.8,1.6-10.1s2.6-6.3,4.6-8.9
		c2.3-3,4.9-5.3,7.8-7s6-2.5,9.1-2.5c4.4,0,7.9,1.1,10.6,3.4c2.6,2.2,3.9,5.2,3.9,8.9c0,1.7-0.2,3.5-0.5,5.6c-0.3,2-0.8,3.8-1.3,5.2
		c-1.6,0.8-3.6,1.4-6,1.8c-2.4,0.4-5.2,0.6-8.6,0.6c-0.9,0-1.9-0.1-2.8-0.2c-0.9-0.1-1.8-0.2-2.7-0.4c-0.1,0.3-0.1,0.7-0.1,1.1
		c0,0.4,0,1,0,1.8c0,3.2,0.4,5.6,1.2,7.3c0.8,1.7,2,2.5,3.5,2.5c1,0,2.1-0.8,3.2-2.4C270.4,50,271.3,48.1,271.9,46z M262.4,33.9
		c0.6,0.2,1.2,0.3,1.9,0.4c0.6,0.1,1.1,0.1,1.5,0.1s0.9,0,1.5,0s0.9-0.1,1.1-0.1c0.3-1.3,0.6-2.4,0.7-3.5c0.2-1.1,0.3-2.1,0.3-3
		c0-1.1-0.1-1.9-0.4-2.4s-0.7-0.8-1.3-0.8c-1.1,0-2,0.9-3,2.6C263.7,28.7,262.9,31,262.4,33.9z"/>
	<path class="st1" d="M310.5,34.6c4.7,2.8,7.9,5.4,9.5,7.6c1.6,2.3,2.4,4.8,2.4,7.6c0,4.3-1.8,7.8-5.5,10.6s-8.2,4.2-13.5,4.2
		c-4.5,0-8.3-1.4-11.4-4.1c-3-2.7-4.6-6-4.6-9.7c1.2-0.6,2.8-1.1,4.8-1.5s3.8-0.6,5.4-0.6c0,2.3,0.5,4.2,1.5,5.6
		c1,1.4,2.4,2.1,4.1,2.1c1.3,0,2.3-0.3,3-0.9c0.7-0.6,1-1.4,1-2.5s-0.4-2.2-1.3-3.2c-0.9-1.1-2.8-2.5-5.8-4.3
		c-4.5-2.8-7.4-5.2-8.9-7.4c-1.5-2.1-2.2-4.5-2.2-7.2c0-4.2,1.6-7.7,4.8-10.4c3.2-2.8,7.4-4.1,12.4-4.1s9.1,1.1,12.2,3.3
		s5.1,5.3,6,9.3c-1.5,1-3.3,1.8-5.2,2.3c-1.9,0.6-4.5,0.9-7.6,1.1c-0.4-2.5-0.9-4.3-1.7-5.4c-0.8-1.1-1.8-1.7-3.1-1.7
		c-0.9,0-1.6,0.3-2.1,0.8s-0.7,1.2-0.7,2.1c0,0.8,0.4,1.7,1.2,2.6C305.9,31.8,307.7,33,310.5,34.6z"/>
</g>
</svg>
