<?xml version="1.0" encoding="utf-8"?>
<!-- Generator: Adobe Illustrator 20.0.0, SVG Export Plug-In . SVG Version: 6.00 Build 0)  -->
<svg version="1.1" id="Layer_1" xmlns="http://www.w3.org/2000/svg" xmlns:xlink="http://www.w3.org/1999/xlink" x="0px" y="0px"
	 viewBox="0 0 377.6 313.6" style="enable-background:new 0 0 377.6 313.6;" xml:space="preserve">
<style type="text/css">
	.st0{opacity:0.4;}
	.st1{fill:none;stroke:#000000;stroke-width:1.5;stroke-linecap:round;stroke-linejoin:round;stroke-miterlimit:10;}
	.st2{stroke:#000000;stroke-width:2.9454;}
	.st3{fill:#FFFFFF;stroke:#000000;stroke-width:2.9454;}
</style>
<g class="st0">
	<g>
		<path class="st1" d="M78.9,160.5c2.3,10.8,10.3,19.4,18.6,26.8c45,40.5,106,62.5,166.5,60.1c11.5-0.5,23-1.8,33.7-5.9
			c10.9-4.2,20.6-11.3,29.2-19.2c39.6-36.8,56.4-96.2,42.1-148.3"/>
		<path class="st1" d="M239.9,202.3c-22.9-14.6-49.1-30.9-71.9-45.5c-8.4-5.3-16.7-10.7-25.8-14.8c-20.1-9.2-47.9-16.3-64.7-6.7
			c-2.3,1.4-3,5.6-3.4,8.2c-1.3,9.2-2.4,18.6-1.6,27.9s3.7,18.6,9.6,25.8c0.8,1,2.5,2,3.3,1c0.6-0.7,0.2-1.8-0.2-2.6
			c-6.2-12.4-8.6-26.7-6.7-40.4"/>
		<path class="st1" d="M319.4,207.8c14.7-5.5,26.5-21.8,25.8-37.5c-0.2-5.2-1.5-10.3-3.3-15.2c-4.1-11.4-11-21.8-19.7-30.2"/>
		<path class="st1" d="M317.4,205c3.3-4.3,6.5-8.7,9.8-13c1.1-1.4,2.1-2.8,2.9-4.4c2.4-5.3,0.9-11.4-0.6-17
			c3.9,1.8,6.8,5.8,7.1,10.1c1-0.8,1.3-2.2,0.8-3.3c3.3,5.2,3.3,12.4,0,17.7"/>
		<path class="st1" d="M321.4,123.8c3.1,0.6,6.2,1.5,9.2,2.6c0.9-3,1.1-6.2,0.5-9.4c1.8,1.1,4.3-0.5,4.8-2.5c0.6-2-0.1-4.2-0.8-6.2
			c-0.8-2.3-1.6-4.6-2.4-6.8c-0.3-0.7-0.5-1.6-0.2-2.3c0.8-1.9,4-0.8,5.7-2.1c2.3-1.8-0.1-6.4,2.4-7.9c1.7,0.1,2.9-1.6,3.7-3.1
			c1.9-3.4,3.8-6.7,5.7-10.1c0.4-0.7,0.8-1.4,1.5-1.6c0.6-0.2,1.2,0,1.8,0.1c1.7,0.4,3.4,0.9,5.1,1.3c0.4-0.7,0.9-1.3,1.3-2
			c1.1,0.3,2,1,2.7,1.9c1.8-0.7,3.6-1.4,5.4-2.2c0.6,0.5,1.1,1.1,1.7,1.6"/>
		<path class="st1" d="M295.1,242.3c21.8,2.6,55.1-3,75.8-19c3-2.3,6.1-5.5,6-9.3c-6.1,2.9-14.7-3.9-19.6,0.8
			c-1.1-2.8-5.1-3.2-7.9-2c-1,0.4-2,0.9-3,0.6c-0.8-0.3-1.3-1-1.8-1.6c-1.5-1.6-3.8-2.4-5.9-2.1"/>
		<path class="st1" d="M121.6,207.4c-6.2,12.9-11.4,26.3-15.5,40c1.4-0.5,2.9-1.1,4.3-1.6c1.1,7,2.3,14.1,5.8,20.2
			c3.2,5.5,8,9.9,12.4,14.5c8.6,9.3,15.3,20.4,19.6,32.3c1.5-2,2-4.7,1.2-7c1.3,0.5,2.7,1,4,1.5c-0.5-6.1-2.1-12.1-4.6-17.7
			c1.1,0.6,2.2,1.1,3.3,1.7c-3.4-7.1,1.4-15.4,1.2-23.3c-0.3-10.7-9.9-20.5-7.3-30.9c-1.1,5.6,1.2,11.5,4.9,15.9s8.5,7.6,13.4,10.7
			c-0.6-8.3-4.5-16.2-10.6-21.8c1.3,1.1,2.2-1.8,1.5-3.3c-2.3-5.2-4.5-10.5-6.8-15.7"/>
		<path class="st1" d="M86.2,132.1c12.9,1.4,23.7-11.3,36.7-11.3c1.1,0,2.7,0.6,2.4,1.7c-7.3,3-11.8,4.6-18.6,8.5"/>
		<path class="st1" d="M334,198.3c33.4-31.2,43.3-84.3,26.9-123.4"/>
		<path class="st1" d="M85.3,160.9c-0.2,3.3,0.2,6.6,1.2,9.8s3.5,6.6,6.8,6c2.6-0.5,4-3.5,3.5-6.1s-2.5-4.6-4.7-6s-4.6-2.4-6.8-3.9"
			/>
		<path class="st1" d="M126.7,210.7c1.6,12.8-4.9,25.3-4.8,38.2c0,11.3,5.4,22.5,14.3,29.6c4.9,4,11.2,7.1,13.4,13.1"/>
		<path class="st1" d="M129.7,211.5c3.3,11.2-1.4,25.7-0.1,37.4c0.8,7,3.9,13.7,8.9,18.8c4.5,4.5,10.5,7.9,12.9,13.8"/>
		<path class="st1" d="M135.5,215.7c3.2,7.9-1.2,16.8-0.9,25.3c0.6,12.8,10.4,20.7,17.6,31.3"/>
		<path class="st1" d="M123,208.9c-1,9.5,0.3,15.9-4.8,24c-2.5,4-6.2,8.8-7.3,13.4"/>
		<path class="st1" d="M140.5,217.8c3.2,5.7,6.6,13.2,5.5,19.3"/>
		<path class="st1" d="M312.5,234.4c13-2.3,24.6-11.7,29.4-24"/>
		<path class="st1" d="M309,236.7c4.3,0.9,8.8-0.4,12.9-2.1c10.6-4.3,20.2-11.5,25.8-21.4"/>
		<path class="st1" d="M302.6,239.7c10.6,1.2,22.5-2.1,32.4-6.2c9.9-4.1,17.7-9.3,22.8-18.7"/>
		<path class="st1" d="M254.9,210.6c5.6,7,15.5,9.1,24.5,8.6c9-0.6,17.7-3.3,26.7-4.1c-0.8-1.2-1.5-2.4-2.3-3.5
			c3-0.6,6.2-0.4,9.1,0.5c-1.2,0.2-1.6-1.8-0.7-2.5s2.2-0.6,3.4-0.4c2.4,0.4,4.8,0.9,7.1,1.5c-7.8-6.7-18.4-9.2-28.7-9.5
			c-10.3-0.3-20.5,1.5-30.7,2.4c-37.1,3.2-75.2-5.8-107-25.3c3.3,4.7,8.4,7.9,13.5,10.6c16.9,8.8,36.6,12.8,55.1,17.8
			c13.9,4.3,28.9-0.3,43.4-1.5c14.7-1.3,29.6,0.9,43.3,6.2"/>
		<path class="st1" d="M230.9,208c8.8,6.8,20.8,2.4,29.4,1.1c13.6-2,27.1,2.9,40.5,5.4c1.5,0.3,3,0.5,4.5,0.3"/>
		<path class="st1" d="M321.2,206.2c3-4.4,6.9-9.4,9.9-13.8c2.2-3.2,4.5-6.6,4.9-10.5c0.2-1.5,0-3.1-0.5-4.6"/>
		<path class="st1" d="M329.4,202.2c2.5-4.3,5.9-10.2,8.4-14.5c0.9-1.5,1.8-3.2,1.4-4.9"/>
		<path class="st1" d="M350.9,74.2c2.3,3.6,3.4,7.9,4.4,12c3.7,15.5,5.5,31.6,4.1,47.5s-5.9,31.7-14.4,45.2"/>
		<path class="st1" d="M343.2,88.5c7.8,10.8,10,23.7,10.9,36.9c0.2,3.8,0.3,9.1,0.3,13c-0.2,12.3-3.8,24.2-9.2,35.3"/>
		<path class="st1" d="M338.6,97.1c10.6,20.3,14.9,40.9,11.6,63.5"/>
		<path class="st1" d="M331.7,117.4c6.1,6,11,14.2,14.1,22.4s4.4,17.2,2.9,25.9"/>
		<path class="st1" d="M330.8,125.7c11.3,13.2,16.9,31.2,15,48.4"/>
		<path class="st1" d="M155.3,149.3c0.1,0.9-0.4,1.8-1,2.4s-1.6,0.9-2.4,1.3c-1.8,0.7-3.6,1.4-5.4,2.1c0.5,2.9-0.6,6.1-2.9,8.1
			c-2.3,2-5.6,2.6-8.4,1.7c3,4.2,1.6,10.3-0.1,15.2c-1,3-2.1,6-4,8.5s-4.6,4.6-7.7,5c-0.6,0.1-1.3,0.1-1.8,0.5s-0.7,1.1-0.8,1.7
			c-0.7,3.7,0,7.6,1.9,10.8"/>
		<path class="st1" d="M137.8,172.2c3.1,2.3,6.1,5.3,6.3,9.1c0.2,3.2-1.8,6.3-4.6,7.8s-6.4,1.4-9.2,0"/>
		<path class="st1" d="M131.2,189.9c2.3,2.3,4.5,4.9,4.7,8.1c0.2,2.6-0.9,5.2-2.9,6.9s-4.6,2.4-7.2,2.2c-1.4-0.1-2.8-0.6-3.8-1.6"/>
		<path class="st1" d="M138.2,172c2.6,0.8,5.3,1,8,0.7c2.1-0.3,4.4-1,5.7-2.7c1.4-2,1.2-4.8-0.1-6.8c-1.2-2.1-3.3-3.5-5.4-4.7"/>
		<path class="st1" d="M147.2,158.7c-0.1,0-0.1-0.3,0-0.3s0.3,0,0.4,0.1c3.2,1.7,6.9,2.4,10.4,2c1.4-0.2,3.1-0.8,3.4-2.2
			c0.2-0.8-0.1-1.6-0.5-2.4c-1.2-2.3-2.9-4.2-5.1-5.6"/>
		<path class="st1" d="M152.8,170c2.8,2.2,6.7,2.7,9.9,1.2c1.2-0.5,2.4-1.4,3-2.6c0.9-1.7,0.6-3.9-0.4-5.5s-2.5-2.9-4.1-4"/>
		<path class="st1" d="M145,183.7c1.7,0.4,3.4,0.8,5.1,0.7c1.7-0.1,3.5-0.7,4.6-2c1.5-1.7,1.6-4.3,0.7-6.3c-0.9-2-2.6-3.6-4.5-4.8"
			/>
		<path class="st1" d="M144.3,184.8c2.2,1.3,4.4,2.6,6,4.5s2.6,4.6,1.8,7c-0.7,2.2-2.8,3.8-4.9,4.7c-3.5,1.4-7.7,1.2-11-0.6"/>
		<path class="st1" d="M136.7,201.6c2,0.8,3.9,2,5.4,3.6c0.7,0.8,1.4,1.7,1.8,2.7c0.7,1.9,0.6,4.1-0.5,5.8c-1,1.7-2.9,2.9-4.9,3.1
			c-0.4,0-0.9-0.3-0.7-0.6"/>
		<path class="st1" d="M145.4,211.5c2.9,1.5,6.7,0.8,8.8-1.6c0.8-0.9,1.4-1.9,1.4-3.1c0-0.7-0.2-1.5-0.5-2.2c-1-2.4-2.8-4.8-5.4-5.3
			"/>
		<path class="st1" d="M152,197.8c3.8,1.5,8.3,1,11.7-1.2c0.6-0.4,1.2-0.9,1.7-1.5c0.5-0.7,0.7-1.5,0.7-2.3c0.3-3-1.9-7.7-4.4-9.3"
			/>
		<path class="st1" d="M161.9,181.2c3,1.1,6.8-0.8,7.8-3.9c0.9-3.1-1.1-6.8-4.1-7.8"/>
		<path class="st1" d="M166.5,168.7c1.6,1.1,3.8,1.1,5.7,0.6c0.9-0.2,1.7-0.6,2.3-1.2c0.7-0.9,0.8-2.1,0.6-3.2
			c-0.3-1.8-1.3-3.6-2.7-4.8"/>
		<path class="st1" d="M170.3,178.2c2.1,1.2,4.7,1.6,7.1,1c1-0.2,1.9-0.6,2.6-1.3c1.6-1.6,1.2-4.4-0.2-6.2s-3.4-2.9-5.3-4.1"/>
		<path class="st1" d="M181.9,176.4c1.3,0.3,2.5,0.7,3.8,0.5s2.6-0.9,3-2.2c0.2-0.5,0.1-1.1,0.1-1.6c-0.3-2.1-1.6-4-3.4-5.1"/>
		<path class="st1" d="M181.3,176.8c1.5,1.3,3.1,2.8,3.6,4.8s-0.2,4.3-1.8,5.6s-7.3,1-9.1,0.1"/>
		<path class="st1" d="M186.2,185.1c-0.2,0-0.4-0.1-0.6-0.1c1.7,0.4,3.6,0.4,5.3-0.1c0.6-0.2,1.2-0.4,1.6-0.9
			c0.7-0.9,0.3-2.3-0.4-3.3c-1.1-1.7-2.6-3.1-4.4-4"/>
		<path class="st1" d="M169.6,178.9c2.8,1.5,4.5,4.9,3.9,8"/>
		<path class="st1" d="M193.8,182.3c1.3,0.9,3.2-0.1,3.8-1.5s0.1-3.1-0.5-4.5c-0.4-0.9-1.1-1.8-2-2.1"/>
		<path class="st1" d="M193,183.8c2.5,1,3.8,4.1,2.9,6.6c-1,2.5-4.1,3.9-6.6,2.9"/>
		<path class="st1" d="M185.2,186.3c0.9,0.9,1.7,1.9,2.2,3c0.3,0.7,0.6,1.4,0.5,2.1c-0.1,0.7-0.7,1.4-1.5,1.4"/>
		<path class="st1" d="M196.5,190.3c-0.1,0-0.2-0.2-0.1-0.2s0.2,0,0.3,0c3.3,1.5,6.6,4.1,7,7.8"/>
		<path class="st1" d="M196.9,189.6c2.4,0.3,4.8-0.4,6.7-1.9c0.3-0.2,0.6-0.5,0.6-0.8c0-0.2-0.1-0.4-0.2-0.6
			c-1.2-2.7-3.8-4.6-6.7-5.2"/>
		<path class="st1" d="M204.8,186.2c1.2,0.6,2.9,0.3,3.7-0.8s0.4-2.9-0.9-3.4"/>
		<path class="st1" d="M199.2,180.3c1.4,0.5,3,0.2,4.3-0.6"/>
		<path class="st1" d="M204.6,197.4c1.2,0.3,2.6,0,3.6-0.9c1-0.8,1.5-2.2,1.3-3.4c-0.1-0.8-0.4-1.6-0.9-2.2c-1.1-1.8-2.7-3.2-4.6-4"
			/>
		<path class="st1" d="M210.2,192.6c1-0.1,2-0.4,3-0.8c0.3-0.1,0.6-0.3,0.7-0.5c0.1-0.2,0.1-0.4,0.1-0.6c0-1.4-0.7-2.8-1.7-3.8
			s-2.2-1.7-3.5-2.4"/>
		<path class="st1" d="M210.8,193.3c2,0.8,3.7,2.4,4.5,4.4c0.3,0.9,0.3,2.2-0.7,2.3"/>
		<path class="st1" d="M214.9,191.2c1.8,0.8,4.1,0.8,5.8-0.2"/>
		<path class="st1" d="M216.1,199.6c2,0,4.1-1,4.9-2.8c0.8-1.8,0-4.3-1.9-5"/>
		<path class="st1" d="M221.8,196.8c1.4,0.1,2.8,0,4.1-0.3c0.5-0.1,0.9-0.3,1.2-0.7s0.2-1-0.2-1.2"/>
		<path class="st1" d="M221.7,197c2.2,0.9,4,2.8,4.7,5.1"/>
		<path class="st1" d="M156.2,208.3c2.7,1.2,5.9,0.9,8.7,0c0.9-0.3,1.9-0.7,2.6-1.3c1.7-1.5,2-4,1.3-6.2c-0.7-2.1-2.3-3.8-3.9-5.3"
			/>
		<path class="st1" d="M155.6,209.5c2.2,1.1,3.5,3.7,3.4,6.1s-1.6,4.8-3.6,6.1c-1.3,0.9-3.3,1.4-4.5,0.3"/>
		<path class="st1" d="M144.2,213.2c1.5,1.1,3.1,2.3,4.3,3.8s1.9,3.5,1.5,5.4"/>
		<path class="st1" d="M169.5,204.2c1.4,0.1,2.8-0.1,4.2-0.4c1.3-0.3,2.6-0.8,3.5-1.7c1-1.1,1.5-2.6,1.3-4.1s-0.9-2.9-1.8-4
			c-0.8-0.9-2.5-2.6-3.4-3.4"/>
		<path class="st1" d="M168.9,206.4c1,1.2,2,2.5,2.8,3.8c0.7,1.2,1.3,2.5,1.6,3.9c0.2,1.4,0,2.9-0.8,4c-1.1,1.7-3.3,2.4-5.3,2.2
			c-2-0.1-3.9-1-5.8-1.8c-1.1-0.5-2.1-0.9-3.2-1.4"/>
		<path class="st1" d="M159.2,218.7c2.3,1.4,4.1,3.5,5.2,5.9c0.6,1.4,0.9,3.2,0.2,4.5c0-0.2-0.1-0.5-0.1-0.7"/>
		<path class="st1" d="M166,228.9c0.2,0.1-0.3,0.2-0.2,0s0.4-0.2,0.6-0.2c3.1,0.4,6.3-0.1,9.1-1.6c0.6-0.3,1.3-0.7,1.7-1.3
			c1.3-1.5,1.2-3.9,0.2-5.7s-1.2-3.8-2.9-5c1.2,0.5,2.5,0.6,3.8,0.6c1.5-0.1,3.1-0.4,4.4-1.1c1.3-0.8,2.4-2,2.8-3.5
			c0.6-2.5-0.9-5-2.8-6.8c-1.4-1.3-2.9-2.4-4.6-3.2"/>
		<path class="st1" d="M178.6,201.1c2.7,0.3,5.4,0.3,8.1-0.1c0.9-0.1,1.8-0.3,2.6-0.9c0.7-0.6,1.2-1.6,0.8-2.4"/>
		<path class="st1" d="M186,211.9c2.5,0.4,5,0.1,7.4-0.8c1-0.4,2.1-1,2.8-1.8c1.4-1.6,1.6-3.9,0.8-5.9s-2.2-3.5-3.9-4.7"/>
		<path class="st1" d="M185.3,212.2c2.7,0.6,4.5,3.1,5.7,5.5c0.5,1,0.9,2,0.9,3c0.1,2.8-2.4,5.2-5.1,5.7c-2.7,0.5-5.6-0.5-7.9-1.9
			c1.7,1.4,3,3.3,3.7,5.3c0.8,2,0.4,4.7-1.5,5.8"/>
		<path class="st1" d="M182.9,235.3c0.7,0.2,1.5,0.1,2.2,0c1.5-0.2,3-0.5,4.3-1c1.4-0.6,2.6-1.6,3.2-3c0.9-2.2-0.1-4.8-1.6-6.8
			c2.4-0.4,5.2-0.9,7.3-2c2.2-1.2,4.1-3.2,4.3-5.7c0.2-1.8-0.4-3.5-1.4-5s-2.3-2.8-3.9-3.6c0.8-0.2,1.6,0,2.4-0.2
			c1.4-0.5,2.9-0.9,4-2c1.1-1,1.6-2.8,0.7-4.1"/>
		<path class="st1" d="M194.5,238.9c1.5-2.5,0.8-6.1-1.4-8c2.4-0.1,4.9-0.8,7.3-1.4c2.3-0.6,5-1.5,5.8-3.7c0.5-1.3,0.2-2.7-0.4-3.9
			s-1.6-2.1-2.6-3c2.5,0.5,6.2-0.8,7.8-2.8s1.9-5,0.7-7.2c-0.5-1-1.3-1.9-2.2-2.6c-1.3-1-2.8-1.8-4.4-2.3"/>
		<path class="st1" d="M221,205.8c1.1,2,0.3,4.8-1.4,6.3s-4.2,2.1-6.5,2c2,1.1,4,3.8,4.9,5.9c0.3,0.7,0.5,1.4,0.5,2.2
			c0.1,2.5-2.3,4.6-4.8,5.1s-5-0.1-7.5-0.6c-0.2,0-0.4-0.1-0.6,0.1c-0.1,0.2,0.2,0.4,0.3,0.3c0.6,0.5,1.5,1.3,2.2,1.7
			c1,0.7,2,1.5,2.5,2.6c0.7,1.9-0.4,4-1.9,5.3c-2.9,2.8-7.2,4-11.2,3.2c-0.1,0-0.2-0.1-0.2-0.2c0-0.1,0.2-0.1,0.2,0"/>
		<path class="st1" d="M221.3,210.8c1.2,0,2.5-0.1,3.6-0.5s2.1-1.4,2.3-2.6"/>
		<path class="st1" d="M225.6,210.8c1.7,1.3,3.1,2.9,3.8,4.9s0.5,4.3-0.8,6c-0.8,1-1.9,1.7-3.1,2.2c-2.1,0.8-4.4,1-6.5,0.5
			c2.3,1.4,4.2,3.4,5.7,5.6c0.4,0.5,0.7,1,0.8,1.7c0.2,1.3-0.9,2.4-2.1,3c-1.9,1-4,1.4-6.2,1.6c-2.6,0.2-5.2,0.3-7.8,0.1
			c3.7,1.2,7,4.3,8.2,7.9"/>
		<path class="st1" d="M239.8,212.2c0.6,1.6-0.5,3.3-1.8,4.4c-2.1,1.8-5,2.7-7.7,2.4c0,0.1,0.1,0.2,0.1,0.2c1.9,0.5,3.6,1.2,5,2.5
			s2.3,3.3,1.9,5.2c-0.5,2.2-2.7,3.8-4.9,4.3c-2.2,0.6-4.6,0.3-6.8,0.4c1.3,0.5,2.9,1.6,4.1,2.1c1.2,0.5,2.5,1.3,2.9,2.6
			c0.4,1.5-0.9,2.9-2.2,3.9c-3.3,2.4-7.3,3.7-11.3,3.8"/>
		<path class="st1" d="M240.7,246.5c0.1-2.1-0.6-4.2-2-5.8s-3.4-2.5-5.5-2.6c3.7-0.4,7-2.2,9.8-4.7c1.2-1.1,2.3-2.7,2-4.3
			c-0.2-1.1-1.2-2-2.2-2.6c-1.4-0.8-3-1.3-4.6-1.4c3.6,0,7.2-1.3,9.6-4c0.4-0.4,0.7-0.9,0.9-1.4c0.2-0.8,0.1-1.6-0.2-2.3
			c-0.7-1.6-2.1-2.8-3.6-3.5s-3.2-1.1-4.9-1.4"/>
		<path class="st1" d="M257.7,214.9c-1.9,2.7-5.2,4.2-8.5,4c3.2,0.5,6.9,1.2,8.6,4c0.4,0.6,0.6,1.4,0.6,2.1c-0.1,1.2-1,2.1-1.9,2.8
			c-3.1,2.4-7.2,3.4-11.1,2.7c2.1,0.6,4.4,0.7,6.5,1.4s4.1,2.3,4.4,4.5c0.4,3-2.6,5.3-5.4,6.3c-3.3,1.2-6.9,1.4-10.3,0.8
			c3,1.1,6.1,2.2,9.1,3.3"/>
		<path class="st1" d="M259.8,247.2c0.6,0.3,4.4-1.2,4.5-1.9c0.1-0.6-0.2-1.3-0.6-1.8c-1.6-2.4-4.2-4-7-4.4c2.5-0.6,4.9-1.6,7.1-2.8
			c1.5-0.8,3-1.8,3.5-3.3c0.7-2-0.6-4.2-2.4-5.4c-1.8-1.1-3.9-1.4-6-1.7c3-0.4,5.9-2,7.8-4.4c0.5-0.7,1-1.5,0.8-2.3"/>
		<path class="st1" d="M265.2,245.5c2.7-0.6,5.4-1.4,7.9-2.6c1.1-0.5,2.3-1.2,2.9-2.2c1.2-1.9,0.1-4.6-1.8-5.9s-4.3-1.5-6.6-1.4
			c2.7-0.8,5.7-1.7,7-4.2c1.1-1.9,0.8-4.5-0.5-6.3s-3.6-2.8-5.8-2.8"/>
		<path class="st1" d="M283.6,244.6c1.3-0.6,1.1-2.6,0.4-3.9c-1.5-2.5-4.6-3.9-7.5-3.4c2.2-0.2,4.2-1.6,5.8-3.2
			c1.3-1.3,2.4-2.8,2.8-4.6c0.3-1.8-0.3-3.8-1.9-4.7c-2.2-1.1-4.7,0.3-7.1,0.7c3.4-0.7,6.4-3,8-6.1"/>
		<path class="st1" d="M285.1,241.8c3.5-1.4,6.3-4.7,6.9-8.5c0.1-0.8,0.2-1.6,0-2.4c-0.3-1.3-1.3-2.3-2.5-2.8s-2.6-0.6-3.9-0.4
			c1.8-0.6,3.3-2.1,3.9-3.9c0.6-1.8,0.2-3.9-0.9-5.4c-0.2-0.1-0.5,0-0.6,0.2"/>
		<path class="st1" d="M288.8,240.3c2-0.5,4.3,0.4,5.5,2.1"/>
		<path class="st1" d="M294.6,217.5c-1,1.6-2.4,3-4.1,4c1.1-0.2,2.1-0.4,3.2-0.7c1.9-0.4,4.2-0.7,5.5,0.8c0.9,1,0.9,2.6,0.3,3.9
			c-0.6,1.2-1.7,2.2-2.9,2.9c-1.4,0.9-2.9,1.5-4.5,1.9c2.4-0.4,4.8-0.5,7.1-0.3c0.7,0.1,1.5,0.2,2.1,0.7c0.7,0.6,0.8,1.7,0.5,2.6
			c-0.3,0.9-0.9,1.6-1.6,2.3c-2,2.1-4.4,3.8-6.9,5.2c2.6-1.4,5.5-2.1,8.5-2"/>
		<path class="st1" d="M304.3,216c-0.1,2.5-1.5,5-3.6,6.3c1.5-0.4,3-0.8,4.5-0.4s2.9,1.6,2.9,3.1c0,1.2-0.9,2.2-1.7,3.1
			c-1.2,1.3-2.6,2.5-4,3.6c3.1-1.3,6.9-0.4,9.2,2"/>
		<path class="st1" d="M307.3,211.8c1.6,1,4,2,3.4,5.7c-0.3,1.8-2.1,3-3.4,4.2c1.5-1.3,3.7-1.7,5.6-0.9s3.2,2.6,3.4,4.5
			c0.2,1.7-0.5,3.4-1.5,4.8s-2.3,2.5-3.6,3.7"/>
		<path class="st1" d="M324.7,223c-0.8-1.1-2-1.8-3.3-2c-1.8-0.3-3.7,0.5-5.4,1.3c2.7-1,4.1-4.2,4.1-7.1c0-0.9-0.1-1.8-0.7-2.5
			c-0.8-1.1-2.3-1.4-3.7-1.5c-1.4-0.1-2.8,0-4.2,0.2c-0.8,0.1-1.7,0.4-1.9,1.1"/>
		<path class="st1" d="M324.1,220.8c0.8-0.9,1.6-1.8,2.4-2.7c0.9-1,1.8-2.1,2-3.4c0.2-1.8-1.3-3.5-3.1-4c-1.8-0.5-3.7,0-5.3,0.8"/>
		<path class="st1" d="M336.2,211.6c-2.1-2.3-6-2.5-8.4-0.5c2.2-1.5,3.4-4.4,2.8-7c-0.2-0.8-0.9-1.8-1.7-1.4"/>
		<path class="st1" d="M335.3,210c1.2-1.1,2-2.6,2.4-4.1c0.5-1.6,0.3-3.7-1.1-4.5c-1-0.6-2.3-0.4-3.4-0.1c-1.2,0.3-2.4,0.9-2.9,2"/>
		<path class="st1" d="M344.5,200.9c-0.3-1.1-1.8-1.3-2.9-1.1c-1.3,0.2-2.6,0.8-3.7,1.6c1.4-1.6,1.7-4,0.9-5.9"/>
		<path class="st1" d="M343.7,199.3c1.7-1.5,2.8-3.6,3.1-5.9c0-0.4,0.1-0.8-0.1-1.1c-0.4-0.9-1.7-0.9-2.7-0.6
			c-2,0.6-3.7,1.8-5.1,3.3c-0.1,0.1-0.2,0.3-0.1,0.4c0.1,0.1,0.3-0.2,0.1-0.2"/>
		<path class="st1" d="M351.9,188.9c-2.1,0.1-4.2,1-5.8,2.5c1.2-1.7,1.4-4,0.6-5.9"/>
		<path class="st1" d="M352.5,188.4c1.4-1.7,2-4.1,1.5-6.2c-0.1-0.6-0.3-1.1-0.8-1.4c-0.3-0.2-0.7-0.2-1-0.2
			c-2.3,0.1-4.6,1.5-5.6,3.6"/>
		<path class="st1" d="M358.5,175.4c-2.3,0.6-4.2,2.2-5.4,4.2c1.2-1.5,1.4-3.7,0.5-5.4"/>
		<path class="st1" d="M358.3,174.9c0.8-1.6,1.6-3.4,1-5c-0.2-0.4-0.5-0.9-0.9-1s-0.8,0-1.2,0.2c-1.8,0.9-3.1,2.5-3.7,4.4"/>
		<path class="st1" d="M89.1,166.6c-0.3,0.1-0.6,0.1-0.8,0c-0.7,2,0.1,4.4,1.8,5.6c0.8,0.5,1.8,0.8,2.6,0.3c0.8-0.5,0.9-1.7,0.7-2.6
			c-0.4-1.6-1.6-2.9-3.1-3.5c-0.5-0.2-1.3-0.2-1.3,0.4"/>
		<path class="st1" d="M262.4,209.9c5.5,6,19.7,9.1,27.7,7.8"/>
	</g>
	<g>
		<path class="st1" d="M298.7,153.1c-2.3-10.8-10.3-19.4-18.6-26.8c-45-40.5-106-62.5-166.5-60.1c-11.5,0.5-23,1.8-33.7,5.9
			C69,76.5,59.3,83.5,50.7,91.5c-39.6,36.7-56.4,96.2-42,148.2"/>
		<path class="st1" d="M137.7,111.3c22.9,14.6,49.1,30.9,71.9,45.5c8.4,5.3,16.7,10.7,25.8,14.8c20.1,9.2,47.9,16.3,64.7,6.7
			c2.3-1.4,3-5.6,3.4-8.2c1.3-9.2,2.4-18.6,1.6-27.9c-0.8-9.3-3.7-18.6-9.6-25.8c-0.8-1-2.5-2-3.3-1c-0.6,0.7-0.2,1.8,0.2,2.6
			c6.2,12.4,8.6,26.7,6.7,40.4"/>
		<path class="st1" d="M58.2,105.8c-14.7,5.5-26.5,21.8-25.8,37.5c0.2,5.2,1.5,10.3,3.3,15.2c4.1,11.4,11,21.8,19.7,30.2"/>
		<path class="st1" d="M60.2,108.6c-3.3,4.3-6.5,8.7-9.8,13c-1.1,1.4-2.1,2.8-2.9,4.4c-2.4,5.3-0.9,11.4,0.6,17
			c-3.9-1.8-6.8-5.8-7.1-10.1c-1,0.8-1.3,2.2-0.8,3.3c-3.3-5.2-3.3-12.4,0-17.7"/>
		<path class="st1" d="M56.2,189.8c-3.1-0.6-6.2-1.5-9.2-2.6c-0.9,3-1.1,6.2-0.5,9.4c-1.8-1.1-4.3,0.5-4.8,2.5
			c-0.6,2,0.1,4.2,0.8,6.2c0.8,2.3,1.6,4.6,2.4,6.8c0.3,0.7,0.5,1.6,0.2,2.3c-0.8,1.9-4,0.8-5.7,2.1c-2.3,1.8,0.1,6.4-2.4,7.9
			c-1.7-0.1-2.9,1.6-3.7,3.1c-1.9,3.4-3.8,6.7-5.7,10.1c-0.4,0.7-0.8,1.4-1.5,1.6c-0.6,0.2-1.2,0-1.8-0.1c-1.7-0.4-3.4-0.9-5.1-1.3
			c-0.4,0.7-0.9,1.3-1.3,2c-1.1-0.3-2-1-2.7-1.9c-1.8,0.7-3.6,1.4-5.4,2.2c-0.6-0.5-1.1-1.1-1.7-1.6"/>
		<path class="st1" d="M82.5,71.3c-21.8-2.6-55.1,3-75.8,19c-3,2.3-6.1,5.5-6,9.3c6.1-2.9,14.7,3.9,19.6-0.8c1.1,2.8,5.1,3.2,7.9,2
			c1-0.4,2-0.9,3-0.6c0.8,0.3,1.3,1,1.8,1.6c1.5,1.6,3.8,2.4,5.9,2.1"/>
		<path class="st1" d="M256,106.2c6.2-12.9,11.4-26.3,15.5-40c-1.4,0.5-2.9,1.1-4.3,1.6c-1.1-7-2.3-14.1-5.8-20.2
			c-3.2-5.5-8-9.9-12.4-14.5c-8.6-9.3-15.3-20.4-19.6-32.3c-1.5,2-2,4.7-1.2,7c-1.3-0.5-2.7-1-4-1.5c0.5,6.1,2.1,12.1,4.6,17.7
			c-1.1-0.6-2.2-1.1-3.3-1.7c3.4,7.1-1.4,15.4-1.2,23.3c0.3,10.7,9.9,20.5,7.3,30.9c1.1-5.6-1.2-11.5-4.9-15.9s-8.5-7.6-13.4-10.7
			c0.6,8.3,4.5,16.2,10.6,21.8c-1.3-1.1-2.2,1.8-1.5,3.3c2.3,5.2,4.5,10.5,6.8,15.7"/>
		<path class="st1" d="M291.4,181.5c-12.9-1.4-23.7,11.3-36.7,11.3c-1.1,0-2.7-0.6-2.4-1.7c7.3-3,11.8-4.6,18.6-8.5"/>
		<path class="st1" d="M43.6,115.3c-33.4,31.2-43.3,84.3-26.9,123.4"/>
		<path class="st1" d="M292.3,152.7c0.2-3.3-0.2-6.6-1.2-9.8s-3.5-6.6-6.8-6c-2.6,0.5-4,3.5-3.5,6.1s2.5,4.6,4.7,6s4.6,2.4,6.8,3.9"
			/>
		<path class="st1" d="M250.9,102.9c-1.6-12.8,4.9-25.3,4.8-38.2c0-11.3-5.4-22.5-14.3-29.6c-4.9-4-11.2-7.1-13.4-13.1"/>
		<path class="st1" d="M247.9,102.1c-3.3-11.2,1.4-25.7,0.1-37.4c-0.8-7-3.9-13.7-8.9-18.8c-4.5-4.5-10.5-7.9-12.9-13.8"/>
		<path class="st1" d="M242.1,97.8c-3.2-7.9,1.2-16.8,0.9-25.3c-0.6-12.8-10.4-20.7-17.6-31.3"/>
		<path class="st1" d="M254.6,104.7c1-9.5-0.3-15.9,4.8-24c2.5-4,6.2-8.8,7.3-13.4"/>
		<path class="st1" d="M237.1,95.8c-3.2-5.7-6.6-13.2-5.5-19.3"/>
		<path class="st1" d="M65.1,79.2c-13,2.3-24.6,11.7-29.4,24"/>
		<path class="st1" d="M68.6,76.9c-4.3-0.9-8.8,0.4-12.9,2.1c-10.6,4.3-20.2,11.5-25.8,21.4"/>
		<path class="st1" d="M74.9,73.9c-10.6-1.2-22.5,2.1-32.4,6.2s-17.7,9.3-22.8,18.7"/>
		<path class="st1" d="M122.7,103c-5.6-7-15.5-9.1-24.5-8.6c-9,0.6-17.7,3.3-26.7,4.1c0.8,1.2,1.5,2.4,2.3,3.5
			c-3,0.6-6.2,0.4-9.1-0.5c1.2-0.2,1.6,1.8,0.7,2.5s-2.2,0.6-3.4,0.4c-2.4-0.4-4.8-0.9-7.1-1.5c7.8,6.7,18.4,9.2,28.7,9.5
			s20.5-1.5,30.7-2.4c37.1-3.2,75.2,5.8,107,25.3c-3.3-4.7-8.4-7.9-13.5-10.6c-16.9-8.8-36.6-12.8-55.1-17.8
			c-13.9-4.3-28.9,0.3-43.4,1.5c-14.7,1.3-29.6-0.9-43.3-6.2"/>
		<path class="st1" d="M146.7,105.6c-8.8-6.8-20.8-2.4-29.4-1.1c-13.6,2-27.1-2.9-40.5-5.4c-1.5-0.3-3-0.5-4.5-0.3"/>
		<path class="st1" d="M56.4,107.4c-3,4.4-6.9,9.4-9.9,13.8c-2.2,3.2-4.5,6.6-4.9,10.5c-0.2,1.5,0,3.1,0.5,4.6"/>
		<path class="st1" d="M48.2,111.4c-2.5,4.3-5.9,10.2-8.4,14.5c-0.9,1.5-1.8,3.2-1.4,4.9"/>
		<path class="st1" d="M26.7,239.4c-2.3-3.6-3.4-7.9-4.4-12c-3.7-15.5-5.5-31.6-4.1-47.5c1.3-15.9,5.9-31.7,14.4-45.2"/>
		<path class="st1" d="M34.4,225.1c-7.8-10.8-10-23.7-10.9-36.9c-0.2-3.8-0.3-9.1-0.3-13c0.2-12.3,3.8-24.2,9.2-35.3"/>
		<path class="st1" d="M39,216.5c-10.6-20.3-14.9-40.9-11.6-63.5"/>
		<path class="st1" d="M45.9,196.2c-6.1-6-11-14.2-14.1-22.4s-4.4-17.2-2.9-25.9"/>
		<path class="st1" d="M46.8,187.9c-11.3-13.2-16.9-31.2-15-48.4"/>
		<path class="st1" d="M222.3,164.3c-0.1-0.9,0.4-1.8,1-2.4c0.7-0.6,1.6-0.9,2.4-1.3c1.8-0.7,3.6-1.4,5.4-2.1
			c-0.5-2.9,0.6-6.1,2.9-8.1c2.3-2,5.6-2.6,8.4-1.7c-3-4.2-1.6-10.3,0.1-15.2c1-3,2.1-6,4-8.5s4.6-4.6,7.7-5
			c0.6-0.1,1.3-0.1,1.8-0.5c0.5-0.4,0.7-1.1,0.8-1.7c0.7-3.7,0-7.6-1.9-10.8"/>
		<path class="st1" d="M239.8,141.4c-3.1-2.3-6.1-5.3-6.3-9.1c-0.2-3.2,1.8-6.3,4.6-7.8s6.4-1.4,9.2,0"/>
		<path class="st1" d="M246.4,123.7c-2.3-2.3-4.5-4.9-4.7-8.1c-0.2-2.6,0.9-5.2,2.9-6.9c2-1.7,4.6-2.4,7.2-2.2
			c1.4,0.1,2.8,0.6,3.8,1.6"/>
		<path class="st1" d="M239.4,141.6c-2.6-0.8-5.3-1-8-0.7c-2.1,0.3-4.4,1-5.7,2.7c-1.4,2-1.2,4.8,0.1,6.8s3.3,3.5,5.4,4.7"/>
		<path class="st1" d="M230.4,154.9c0.1,0,0.1,0.3,0,0.3s-0.3,0-0.4-0.1c-3.2-1.7-6.9-2.4-10.4-2c-1.4,0.2-3.1,0.8-3.4,2.2
			c-0.2,0.8,0.1,1.6,0.5,2.4c1.2,2.3,2.9,4.2,5.1,5.6"/>
		<path class="st1" d="M224.7,143.6c-2.8-2.2-6.7-2.7-9.9-1.2c-1.2,0.5-2.4,1.4-3,2.6c-0.9,1.7-0.6,3.9,0.4,5.5s2.5,2.9,4.1,4"/>
		<path class="st1" d="M232.6,129.9c-1.7-0.4-3.4-0.8-5.1-0.7c-1.7,0.1-3.5,0.7-4.6,2c-1.5,1.7-1.6,4.3-0.7,6.3s2.6,3.6,4.5,4.8"/>
		<path class="st1" d="M233.3,128.8c-2.2-1.3-4.4-2.6-6-4.5s-2.6-4.6-1.8-7c0.7-2.2,2.8-3.8,4.9-4.7c3.5-1.4,7.7-1.2,11,0.6"/>
		<path class="st1" d="M240.9,112c-2-0.8-3.9-2-5.4-3.6c-0.7-0.8-1.4-1.7-1.8-2.7c-0.7-1.9-0.6-4.1,0.5-5.8c1-1.7,2.9-2.9,4.9-3.1
			c0.4,0,0.9,0.3,0.7,0.6"/>
		<path class="st1" d="M232.2,102.1c-2.9-1.5-6.7-0.8-8.8,1.6c-0.8,0.9-1.4,1.9-1.4,3.1c0,0.7,0.2,1.5,0.5,2.2
			c1,2.4,2.8,4.8,5.4,5.3"/>
		<path class="st1" d="M225.6,115.8c-3.8-1.5-8.3-1-11.7,1.2c-0.6,0.4-1.2,0.9-1.7,1.5c-0.5,0.7-0.7,1.5-0.7,2.3
			c-0.3,3,1.9,7.7,4.4,9.3"/>
		<path class="st1" d="M215.7,132.4c-3-1.1-6.8,0.8-7.8,3.9s1.1,6.8,4.1,7.8"/>
		<path class="st1" d="M211.1,144.9c-1.6-1.1-3.8-1.1-5.7-0.6c-0.9,0.2-1.7,0.6-2.3,1.2c-0.7,0.9-0.8,2.1-0.6,3.2
			c0.3,1.8,1.3,3.6,2.7,4.8"/>
		<path class="st1" d="M207.3,135.4c-2.1-1.2-4.7-1.6-7.1-1c-1,0.2-1.9,0.6-2.6,1.3c-1.6,1.6-1.2,4.4,0.2,6.2s3.4,2.9,5.3,4.1"/>
		<path class="st1" d="M195.7,137.2c-1.3-0.3-2.5-0.7-3.8-0.5s-2.6,0.9-3,2.2c-0.2,0.5-0.1,1.1-0.1,1.6c0.3,2.1,1.6,4,3.4,5.1"/>
		<path class="st1" d="M196.3,136.8c-1.5-1.3-3.1-2.8-3.6-4.8s0.2-4.3,1.8-5.6s7.3-1,9.1-0.1"/>
		<path class="st1" d="M191.4,128.5c0.2,0,0.4,0.1,0.6,0.1c-1.7-0.4-3.6-0.4-5.3,0.1c-0.6,0.2-1.2,0.4-1.6,0.9
			c-0.7,0.9-0.3,2.3,0.4,3.3c1.1,1.7,2.6,3.1,4.4,4"/>
		<path class="st1" d="M208,134.7c-2.8-1.5-4.5-4.9-3.9-8"/>
		<path class="st1" d="M183.8,131.3c-1.3-0.9-3.2,0.1-3.8,1.5s-0.1,3.1,0.5,4.5c0.4,0.9,1.1,1.8,2,2.1"/>
		<path class="st1" d="M184.6,129.7c-2.5-1-3.8-4.1-2.9-6.6s4.1-3.9,6.6-2.9"/>
		<path class="st1" d="M192.4,127.3c-0.9-0.9-1.7-1.9-2.2-3c-0.3-0.7-0.6-1.4-0.5-2.1s0.7-1.4,1.5-1.4"/>
		<path class="st1" d="M181.1,123.3c0.1,0,0.2,0.2,0.1,0.2s-0.2,0-0.3,0c-3.3-1.5-6.6-4.1-7-7.8"/>
		<path class="st1" d="M180.7,124c-2.4-0.3-4.8,0.4-6.7,1.9c-0.3,0.2-0.6,0.5-0.6,0.8c0,0.2,0.1,0.4,0.2,0.6
			c1.2,2.7,3.8,4.6,6.7,5.2"/>
		<path class="st1" d="M172.8,127.4c-1.2-0.6-2.9-0.3-3.7,0.8c-0.8,1.1-0.4,2.9,0.9,3.4"/>
		<path class="st1" d="M178.4,133.3c-1.4-0.5-3-0.2-4.3,0.6"/>
		<path class="st1" d="M173,116.2c-1.2-0.3-2.6,0-3.6,0.9c-1,0.8-1.5,2.2-1.3,3.4c0.1,0.8,0.4,1.6,0.9,2.2c1.1,1.8,2.7,3.2,4.6,4"/>
		<path class="st1" d="M167.4,121c-1,0.1-2,0.4-3,0.8c-0.3,0.1-0.6,0.3-0.7,0.5c-0.1,0.2-0.1,0.4-0.1,0.6c0,1.4,0.7,2.8,1.7,3.8
			s2.2,1.7,3.5,2.4"/>
		<path class="st1" d="M166.8,120.3c-2-0.8-3.7-2.4-4.5-4.4c-0.3-0.9-0.3-2.2,0.7-2.3"/>
		<path class="st1" d="M162.7,122.4c-1.8-0.8-4.1-0.8-5.8,0.2"/>
		<path class="st1" d="M161.5,114c-2,0-4.1,1-4.9,2.8c-0.8,1.8,0,4.3,1.9,5"/>
		<path class="st1" d="M155.8,116.8c-1.4-0.1-2.8,0-4.1,0.3c-0.5,0.1-0.9,0.3-1.2,0.7c-0.3,0.4-0.2,1,0.2,1.2"/>
		<path class="st1" d="M155.9,116.5c-2.2-0.9-4-2.8-4.7-5.1"/>
		<path class="st1" d="M221.4,105.3c-2.7-1.2-5.9-0.9-8.7,0c-0.9,0.3-1.9,0.7-2.6,1.3c-1.7,1.5-2,4-1.3,6.2c0.7,2.1,2.3,3.8,3.9,5.3
			"/>
		<path class="st1" d="M222,104.1c-2.2-1.1-3.5-3.7-3.4-6.1c0.1-2.5,1.6-4.8,3.6-6.1c1.3-0.9,3.3-1.4,4.5-0.3"/>
		<path class="st1" d="M233.4,100.4c-1.5-1.1-3.1-2.3-4.3-3.8s-1.9-3.5-1.5-5.4"/>
		<path class="st1" d="M208.1,109.4c-1.4-0.1-2.8,0.1-4.2,0.4c-1.3,0.3-2.6,0.8-3.5,1.7c-1,1.1-1.5,2.6-1.3,4.1s0.9,2.9,1.8,4
			c0.8,0.9,2.5,2.6,3.4,3.4"/>
		<path class="st1" d="M208.7,107.2c-1-1.2-2-2.5-2.8-3.8c-0.7-1.2-1.3-2.5-1.6-3.9s0-2.9,0.8-4c1.1-1.7,3.3-2.4,5.3-2.2
			c2,0.1,3.9,1,5.8,1.8c1.1,0.5,2.1,0.9,3.2,1.4"/>
		<path class="st1" d="M218.4,94.9c-2.3-1.4-4.1-3.5-5.2-5.9c-0.6-1.4-0.9-3.2-0.2-4.5c0,0.2,0.1,0.5,0.1,0.7"/>
		<path class="st1" d="M211.6,84.7c-0.2-0.1,0.3-0.2,0.2,0s-0.4,0.2-0.6,0.2c-3.1-0.4-6.3,0.1-9.1,1.6c-0.6,0.3-1.3,0.7-1.7,1.3
			c-1.3,1.5-1.2,3.9-0.2,5.7c1,1.8,1.2,3.8,2.9,5c-1.2-0.5-2.5-0.6-3.8-0.6c-1.5,0.1-3.1,0.4-4.4,1.1c-1.3,0.8-2.4,2-2.8,3.5
			c-0.6,2.5,0.9,5,2.8,6.8c1.4,1.3,2.9,2.4,4.6,3.2"/>
		<path class="st1" d="M199,112.5c-2.7-0.3-5.4-0.3-8.1,0.1c-0.9,0.1-1.8,0.3-2.6,0.9c-0.7,0.6-1.2,1.6-0.8,2.4"/>
		<path class="st1" d="M191.6,101.7c-2.5-0.4-5-0.1-7.4,0.8c-1,0.4-2.1,1-2.8,1.8c-1.4,1.6-1.6,3.9-0.8,5.9s2.2,3.5,3.9,4.7"/>
		<path class="st1" d="M192.3,101.3c-2.7-0.6-4.5-3.1-5.7-5.5c-0.5-1-0.9-2-0.9-3c-0.1-2.8,2.4-5.2,5.1-5.7c2.7-0.5,5.6,0.5,7.9,1.9
			c-1.7-1.4-3-3.3-3.7-5.3s-0.4-4.7,1.5-5.8"/>
		<path class="st1" d="M194.7,78.3c-0.7-0.2-1.5-0.1-2.2,0c-1.5,0.2-3,0.5-4.3,1s-2.6,1.6-3.2,3c-0.9,2.2,0.1,4.8,1.6,6.8
			c-2.4,0.4-5.2,0.9-7.3,2c-2.2,1.2-4.1,3.2-4.3,5.7c-0.2,1.8,0.4,3.5,1.4,5s2.3,2.8,3.9,3.6c-0.8,0.2-1.6,0-2.4,0.2
			c-1.4,0.5-2.9,0.9-4,2c-1.1,1-1.6,2.8-0.7,4.1"/>
		<path class="st1" d="M183.1,74.7c-1.5,2.5-0.8,6.1,1.4,8c-2.4,0.1-4.9,0.8-7.3,1.4c-2.3,0.6-5,1.5-5.8,3.7
			c-0.5,1.3-0.2,2.7,0.4,3.9s1.6,2.1,2.6,3c-2.5-0.5-6.2,0.8-7.8,2.8s-1.9,5-0.7,7.2c0.5,1,1.3,1.9,2.2,2.6c1.3,1,2.8,1.8,4.4,2.3"
			/>
		<path class="st1" d="M156.5,107.8c-1.1-2-0.3-4.8,1.4-6.3s4.2-2.1,6.5-2c-2-1.1-4-3.8-4.9-5.9c-0.3-0.7-0.5-1.4-0.5-2.2
			c-0.1-2.5,2.3-4.6,4.8-5.1s5,0.1,7.5,0.6c0.2,0,0.4,0.1,0.6-0.1c0.1-0.2-0.2-0.4-0.3-0.3c-0.6-0.5-1.5-1.3-2.2-1.7
			c-1-0.7-2-1.5-2.5-2.6c-0.7-1.9,0.4-4,1.9-5.3c2.9-2.8,7.2-4,11.2-3.2c0.1,0,0.2,0.1,0.2,0.2s-0.2,0.1-0.2,0"/>
		<path class="st1" d="M156.3,102.8c-1.2,0-2.5,0.1-3.6,0.5s-2.1,1.4-2.3,2.6"/>
		<path class="st1" d="M152,102.8c-1.7-1.3-3.1-2.9-3.8-4.9s-0.5-4.3,0.8-6c0.8-1,1.9-1.7,3.1-2.2c2.1-0.8,4.4-1,6.5-0.5
			c-2.3-1.4-4.2-3.4-5.7-5.6c-0.4-0.5-0.7-1-0.8-1.7c-0.2-1.3,0.9-2.4,2.1-3c1.9-1,4-1.4,6.2-1.6c2.6-0.2,5.2-0.3,7.8-0.1
			c-3.7-1.2-7-4.3-8.2-7.9"/>
		<path class="st1" d="M137.8,101.4c-0.6-1.6,0.5-3.3,1.8-4.4c2.1-1.8,5-2.7,7.7-2.4c0-0.1-0.1-0.2-0.1-0.2c-1.9-0.5-3.6-1.2-5-2.5
			s-2.3-3.3-1.9-5.2c0.5-2.2,2.7-3.8,4.9-4.3c2.2-0.6,4.6-0.3,6.8-0.4c-1.3-0.5-2.9-1.6-4.1-2.1c-1.2-0.5-2.5-1.3-2.9-2.6
			c-0.4-1.5,0.9-2.9,2.2-3.9c3.3-2.4,7.3-3.7,11.3-3.8"/>
		<path class="st1" d="M136.9,67.1c-0.1,2.1,0.6,4.2,2,5.8s3.4,2.5,5.5,2.6c-3.7,0.4-7,2.2-9.8,4.7c-1.2,1.1-2.3,2.7-2,4.3
			c0.2,1.1,1.2,2,2.2,2.6c1.4,0.8,3,1.3,4.6,1.4c-3.6,0-7.2,1.3-9.6,4c-0.4,0.4-0.7,0.9-0.9,1.4c-0.2,0.8-0.1,1.6,0.2,2.3
			c0.7,1.6,2.1,2.8,3.6,3.5c1.5,0.8,3.2,1.1,4.9,1.4"/>
		<path class="st1" d="M119.9,98.7c1.9-2.7,5.2-4.2,8.5-4c-3.2-0.5-6.9-1.2-8.6-4c-0.4-0.6-0.6-1.4-0.6-2.1c0.1-1.2,1-2.1,1.9-2.8
			c3.1-2.4,7.2-3.4,11.1-2.7c-2.1-0.6-4.4-0.7-6.5-1.4c-2.1-0.7-4.1-2.3-4.4-4.5c-0.4-3,2.6-5.3,5.4-6.3c3.3-1.2,6.9-1.4,10.3-0.8
			c-3-1.1-6.1-2.2-9.1-3.3"/>
		<path class="st1" d="M117.8,66.4c-0.6-0.3-4.4,1.2-4.5,1.9c-0.1,0.6,0.2,1.3,0.6,1.8c1.6,2.4,4.2,4,7,4.4
			c-2.5,0.6-4.9,1.6-7.1,2.8c-1.5,0.8-3,1.8-3.5,3.3c-0.7,2,0.6,4.2,2.4,5.4c1.8,1.1,3.9,1.4,6,1.7c-3,0.4-5.9,2-7.8,4.4
			c-0.5,0.7-1,1.5-0.8,2.3"/>
		<path class="st1" d="M112.4,68c-2.7,0.6-5.4,1.4-7.9,2.6c-1.1,0.5-2.3,1.2-2.9,2.2c-1.2,1.9-0.1,4.6,1.8,5.9s4.3,1.5,6.6,1.4
			c-2.7,0.8-5.7,1.7-7,4.2c-1.1,1.9-0.8,4.5,0.5,6.3s3.6,2.8,5.8,2.8"/>
		<path class="st1" d="M94,69c-1.3,0.6-1.1,2.6-0.4,3.9c1.5,2.5,4.6,3.9,7.5,3.4c-2.2,0.2-4.2,1.6-5.8,3.2c-1.3,1.3-2.4,2.8-2.8,4.6
			s0.3,3.8,1.9,4.7c2.2,1.1,4.7-0.3,7.1-0.7c-3.4,0.7-6.4,3-8,6.1"/>
		<path class="st1" d="M92.5,71.8c-3.5,1.4-6.3,4.7-6.9,8.5c-0.1,0.8-0.2,1.6,0,2.4c0.3,1.3,1.3,2.3,2.5,2.8s2.6,0.6,3.9,0.4
			c-1.8,0.6-3.3,2.1-3.9,3.9s-0.2,3.9,0.9,5.4c0.2,0.1,0.5,0,0.6-0.2"/>
		<path class="st1" d="M88.8,73.3c-2,0.5-4.3-0.4-5.5-2.1"/>
		<path class="st1" d="M83,96.1c1-1.6,2.4-3,4.1-4c-1.1,0.2-2.1,0.4-3.2,0.7c-1.9,0.4-4.2,0.7-5.5-0.8c-0.9-1-0.9-2.6-0.3-3.9
			s1.7-2.2,2.9-2.9c1.4-0.9,2.9-1.5,4.5-1.9c-2.4,0.4-4.8,0.5-7.1,0.3c-0.7-0.1-1.5-0.2-2.1-0.7c-0.7-0.6-0.8-1.7-0.5-2.6
			s0.9-1.6,1.6-2.3c2-2.1,4.4-3.8,6.9-5.2c-2.6,1.4-5.5,2.1-8.5,2"/>
		<path class="st1" d="M73.3,97.6c0.1-2.5,1.5-5,3.6-6.3c-1.5,0.4-3,0.8-4.5,0.4c-1.5-0.3-2.9-1.6-2.9-3.1c0-1.2,0.9-2.2,1.7-3.1
			c1.2-1.3,2.6-2.5,4-3.6c-3.1,1.3-6.9,0.4-9.2-2"/>
		<path class="st1" d="M70.3,101.8c-1.6-1-4-2-3.4-5.7c0.3-1.8,2.1-3,3.4-4.2c-1.5,1.3-3.7,1.7-5.6,0.9s-3.2-2.6-3.4-4.5
			c-0.2-1.7,0.5-3.4,1.5-4.8s2.3-2.5,3.6-3.7"/>
		<path class="st1" d="M52.9,90.6c0.8,1.1,2,1.8,3.3,2c1.8,0.3,3.7-0.5,5.4-1.3c-2.7,1-4.1,4.2-4.1,7.1c0,0.9,0.1,1.8,0.7,2.5
			c0.8,1.1,2.3,1.4,3.7,1.5s2.8,0,4.2-0.2c0.8-0.1,1.7-0.4,1.9-1.1"/>
		<path class="st1" d="M53.5,92.8c-0.8,0.9-1.6,1.8-2.4,2.7c-0.9,1-1.8,2.1-2,3.4c-0.2,1.8,1.3,3.5,3.1,4s3.7,0,5.3-0.8"/>
		<path class="st1" d="M41.4,102c2.1,2.3,6,2.5,8.4,0.5c-2.2,1.5-3.4,4.4-2.8,7c0.2,0.8,0.9,1.8,1.7,1.4"/>
		<path class="st1" d="M42.3,103.6c-1.2,1.1-2,2.6-2.4,4.1c-0.5,1.6-0.3,3.7,1.1,4.5c1,0.6,2.3,0.4,3.4,0.1c1.2-0.3,2.4-0.9,2.9-2"
			/>
		<path class="st1" d="M33.1,112.7c0.3,1.1,1.8,1.3,2.9,1.1c1.3-0.2,2.6-0.8,3.7-1.6c-1.4,1.6-1.7,4-0.9,5.9"/>
		<path class="st1" d="M33.9,114.3c-1.7,1.5-2.8,3.6-3.1,5.9c0,0.4-0.1,0.8,0.1,1.1c0.4,0.9,1.7,0.9,2.7,0.6c2-0.6,3.7-1.8,5.1-3.3
			c0.1-0.1,0.2-0.3,0.1-0.4s-0.3,0.2-0.1,0.2"/>
		<path class="st1" d="M25.7,124.6c2.1-0.1,4.2-1,5.8-2.5c-1.2,1.7-1.4,4-0.6,5.9"/>
		<path class="st1" d="M25.1,125.2c-1.4,1.7-2,4.1-1.5,6.2c0.1,0.6,0.3,1.1,0.8,1.4c0.3,0.2,0.7,0.2,1,0.2c2.3-0.1,4.6-1.5,5.6-3.6"
			/>
		<path class="st1" d="M19.1,138.2c2.3-0.6,4.2-2.2,5.4-4.2c-1.2,1.5-1.4,3.7-0.5,5.4"/>
		<path class="st1" d="M19.3,138.7c-0.8,1.6-1.6,3.4-1,5c0.2,0.4,0.5,0.9,0.9,1s0.8,0,1.2-0.2c1.8-0.9,3.1-2.5,3.7-4.4"/>
		<path class="st1" d="M288.5,147c0.3-0.1,0.6-0.1,0.8,0c0.7-2-0.1-4.4-1.8-5.6c-0.8-0.5-1.8-0.8-2.6-0.3c-0.8,0.5-0.9,1.7-0.7,2.6
			c0.4,1.6,1.6,2.9,3.1,3.5c0.5,0.2,1.3,0.2,1.3-0.4"/>
		<path class="st1" d="M115.2,103.7c-5.5-6-19.7-9.1-27.7-7.8"/>
	</g>
</g>
<g>
	<path class="st2" d="M53.1,124.5c6.3,0,11.2,2.1,14.6,6.2c3.4,4.1,5.2,10,5.2,17.5c0,4.1-0.6,8.3-1.7,12.5s-2.6,8-4.6,11.2
		c-2.4,3.9-5.4,6.8-8.8,8.9c-3.5,2-7.4,3-11.7,3c-6.3,0-11.2-2.4-14.7-7.3c-3.5-4.9-5.3-11.4-5.3-19.7c0-9.5,2.5-17.3,7.5-23.3
		C38.6,127.5,45.1,124.5,53.1,124.5z M49.4,173.6c2.4,0,4.1-1.6,5.3-4.9c1.2-3.3,1.7-8.6,1.7-16.2c0-6.5-0.5-11-1.5-13.8
		c-1-2.7-2.7-4.1-5.2-4.1c-2.4,0-4.3,1.7-5.6,5.2s-1.9,8.4-1.9,14.7c0,6,0.6,10.7,1.9,14C45.3,172,47.1,173.6,49.4,173.6z"/>
	<path class="st2" d="M94.7,183.1c-5.6,0-9.8-1.9-12.7-5.6c-2.9-3.7-4.3-9.1-4.3-16.1c0-3.8,0.4-7.8,1.2-12c0.8-4.2,1.6-7,2.4-8.6
		c1.2-0.3,2.4-0.6,3.7-0.7c1.2-0.2,2.4-0.2,3.4-0.2c1.6,0,3,0.1,4.2,0.3s2.1,0.5,2.7,0.9c-0.5,2.8-0.8,5.7-1.1,8.7
		c-0.3,2.9-0.4,5.8-0.4,8.5c0,4.8,0.3,8.6,0.9,11.3s1.4,4.1,2.4,4.1s1.8-1.5,2.4-4.7c0.6-3.1,0.9-7.1,0.9-12.1
		c0-2.4-0.1-4.8-0.3-7.4c-0.2-2.5-0.4-4.3-0.6-5.3c2-0.8,4.5-1.5,7.4-2s5.8-0.7,8.6-0.7c0.3,1.2,0.5,2.8,0.6,4.7s0.2,3.9,0.2,6.1
		c0,10.1-1.8,17.8-5.4,23C107.1,180.5,101.8,183.1,94.7,183.1z"/>
	<path class="st2" d="M142.9,164c1.8,0.2,3.6,0.7,5.5,1.4s3.5,1.7,5,2.8c0,3.8-1.2,7-3.5,9.6c-2.4,2.6-5.7,3.9-9.9,3.9
		c-5.3,0-9.4-1.9-12.3-5.6c-2.9-3.8-4.4-9.2-4.4-16.4c0-1.7,0-3.4,0.1-5.2s0.2-3.7,0.3-5.7c-1.1-0.2-2-0.3-3-0.6
		c-0.9-0.2-1.8-0.4-2.5-0.6c0-1.7,0.2-3.3,0.5-4.8s0.8-2.7,1.3-3.5c0.5,0.2,1.2,0.3,1.9,0.5c0.8,0.2,1.7,0.4,2.8,0.5
		c0.3-2.2,0.6-4,1-5.6c0.3-1.6,0.7-3,1.1-4.3c3.2,0,6.2,0.2,9.2,0.6c3,0.4,5.4,0.9,7.2,1.5c-0.3,1.3-0.7,2.7-1,4.2
		c-0.4,1.6-0.7,3.1-0.9,4.8c2.2,0.1,4.3,0,6.3,0c2-0.1,3.8-0.2,5.3-0.4c0,1.2-0.1,2.6-0.4,4.1c-0.3,1.5-0.6,2.9-1.1,4.2
		c-1.3,0.3-3,0.5-5,0.6s-4.2,0.2-6.5,0.1c-0.3,2-0.5,4-0.6,6c-0.2,2-0.2,3.9-0.2,5.7c0,4.4,0.2,7.4,0.5,8.9c0.3,1.6,0.8,2.3,1.6,2.3
		c0.5,0,0.9-0.8,1.3-2.4C142.7,169,142.9,166.8,142.9,164z"/>
	<path class="st2" d="M194.6,175.9c0.4,1.4,0.8,3.3,1.2,5.8s0.6,4.6,0.6,6.3c-5.2,0-10.2,0.2-14.9,0.6c-4.8,0.4-10.7,1.1-17.8,2
		c-1.3-7.8-2.4-17.8-3.4-29.8s-1.5-22-1.5-30c2.4-0.6,4.8-1.1,7.1-1.4c2.3-0.3,4.7-0.5,7-0.5c0.7,0,1.4,0,2,0c0.7,0,1.4,0.1,2.1,0.2
		c-0.4,2.6-0.8,6.1-1,10.5c-0.3,4.4-0.4,9.1-0.4,14c0,7.1,0.1,12.5,0.3,15.9c0.2,3.5,0.5,6.4,0.9,8.9c2.9-0.8,6-1.5,9.1-2
		C189.1,176.2,192,175.9,194.6,175.9z"/>
	<path class="st2" d="M201.9,142.6c1.4-0.8,3.1-1.5,5-1.9s3.9-0.6,6.1-0.6c1.1,0,2.1,0.1,3.1,0.2c1,0.1,2,0.2,3,0.4
		c-1.2,3.4-2.2,8.9-3,16.3c-0.9,7.5-1.5,15.6-1.8,24.5c-1.1,0.6-2.5,1-4.2,1.4c-1.7,0.3-3.5,0.5-5.3,0.5c-0.8,0-1.5,0-2-0.1
		c-0.6-0.1-1.1-0.1-1.5-0.2c-0.8-7.5-1.1-14.7-1-21.6C200.3,154.5,200.8,148.2,201.9,142.6z M212.9,122.7c1.6,0,3,0.1,4.4,0.4
		s2.5,0.6,3.5,1.1c-0.5,1.1-1,2.7-1.6,4.8s-1,4-1.3,5.6c-1.8,0.3-3.8,0.5-6,0.7c-2.2,0.1-4.7,0.2-7.5,0.1c-0.4-1.2-0.6-2.3-0.8-3.5
		s-0.3-2.3-0.3-3.4c0-0.8,0-1.6,0.1-2.2s0.2-1.2,0.4-1.7c1.2-0.7,2.6-1.2,4.1-1.5S211,122.7,212.9,122.7z"/>
	<path class="st2" d="M239.8,174.5c0,1.5,0,2.9,0,4.4c0,1.4,0.1,3.2,0.2,5.2c-1.5,0.4-3.5,0.8-6,1.1s-4.9,0.5-7,0.5
		c-0.8-5.7-1.5-13.1-2.1-22.1S224,147.1,224,141c1.2-0.6,2.9-1.1,5.1-1.5c2.2-0.4,4.5-0.6,6.8-0.6c1.1,0,2.1,0.1,3.1,0.2
		c1,0.1,2,0.3,3,0.5c-0.3,1.9-0.4,3.3-0.6,4.1c-0.1,0.8-0.2,1.7-0.2,2.5c1.5-2.2,3.3-3.9,5.2-5s4.1-1.7,6.4-1.7c3.7,0,6.5,1.3,8.4,4
		c1.9,2.7,2.8,6.6,2.8,11.8c0,4.1-0.3,8.8-1,14.2c-0.7,5.3-1.4,9.4-2.1,12.1c-2,0-4.3-0.1-6.8-0.4c-2.5-0.2-5.3-0.6-8.5-1.1
		c0.9-4.9,1.6-9.6,2.1-13.8c0.5-4.3,0.7-7.8,0.7-10.4c0-1.5-0.2-2.6-0.6-3.3c-0.4-0.7-1.1-1.1-2-1.1c-1,0-2,0.6-2.9,1.7
		c-0.9,1.2-1.8,2.8-2.5,4.8c-0.2,3.3-0.4,6.3-0.4,9.1C239.9,169.8,239.8,172.3,239.8,174.5z"/>
	<path class="st2" d="M296.6,167.2c2,0.4,4,1.1,6.1,2.2c2.1,1.1,3.8,2.3,5.1,3.7c-0.4,1.4-1.4,2.8-2.9,4.4c-1.5,1.6-3.3,2.9-5.4,3.9
		c-1.7,0.8-3.5,1.5-5.5,1.9s-4,0.7-6.2,0.7c-5.5,0-9.7-1.6-12.8-4.8c-3.1-3.2-4.6-7.5-4.6-13c0-3.4,0.5-6.8,1.6-10.1
		s2.6-6.3,4.6-8.9c2.3-3,4.9-5.3,7.8-7s6-2.5,9.1-2.5c4.4,0,7.9,1.1,10.6,3.4c2.6,2.2,3.9,5.2,3.9,8.9c0,1.7-0.2,3.5-0.5,5.6
		c-0.3,2-0.8,3.8-1.3,5.2c-1.6,0.8-3.6,1.4-6,1.8c-2.4,0.4-5.2,0.6-8.6,0.6c-0.9,0-1.9-0.1-2.8-0.2c-0.9-0.1-1.8-0.2-2.7-0.4
		c-0.1,0.3-0.1,0.7-0.1,1.1c0,0.4,0,1,0,1.8c0,3.2,0.4,5.6,1.2,7.3c0.8,1.7,2,2.5,3.5,2.5c1,0,2.1-0.8,3.2-2.4
		C295,171.1,295.9,169.3,296.6,167.2z M287,155c0.6,0.2,1.2,0.3,1.9,0.4c0.6,0.1,1.1,0.1,1.5,0.1s0.9,0,1.5,0s0.9-0.1,1.1-0.1
		c0.3-1.3,0.6-2.4,0.7-3.5c0.2-1.1,0.3-2.1,0.3-3c0-1.1-0.1-1.9-0.4-2.4s-0.7-0.8-1.3-0.8c-1.1,0-2,0.9-3,2.6
		C288.4,149.8,287.6,152.1,287,155z"/>
	<path class="st2" d="M335.1,155.8c4.7,2.8,7.9,5.4,9.5,7.6c1.6,2.3,2.4,4.8,2.4,7.6c0,4.3-1.8,7.8-5.5,10.6s-8.2,4.2-13.5,4.2
		c-4.5,0-8.3-1.4-11.4-4.1c-3-2.7-4.6-6-4.6-9.7c1.2-0.6,2.8-1.1,4.8-1.5s3.8-0.6,5.4-0.6c0,2.3,0.5,4.2,1.5,5.6
		c1,1.4,2.4,2.1,4.1,2.1c1.3,0,2.3-0.3,3-0.9c0.7-0.6,1-1.4,1-2.5s-0.4-2.2-1.3-3.2c-0.9-1.1-2.8-2.5-5.8-4.3
		c-4.5-2.8-7.4-5.2-8.9-7.4c-1.5-2.1-2.2-4.5-2.2-7.2c0-4.2,1.6-7.7,4.8-10.4c3.2-2.8,7.4-4.1,12.4-4.1s9.1,1.1,12.2,3.3
		s5.1,5.3,6,9.3c-1.5,1-3.3,1.8-5.2,2.3c-1.9,0.6-4.5,0.9-7.6,1.1c-0.4-2.5-0.9-4.3-1.7-5.4c-0.8-1.1-1.8-1.7-3.1-1.7
		c-0.9,0-1.6,0.3-2.1,0.8s-0.7,1.2-0.7,2.1c0,0.8,0.4,1.7,1.2,2.6S332.3,154.2,335.1,155.8z"/>
</g>
<g>
	<path class="st3" d="M51.7,120.8c6.3,0,11.2,2.1,14.6,6.2c3.4,4.1,5.2,10,5.2,17.5c0,4.1-0.6,8.3-1.7,12.5s-2.6,8-4.6,11.2
		c-2.4,3.9-5.4,6.8-8.8,8.9c-3.5,2-7.4,3-11.7,3c-6.3,0-11.2-2.4-14.7-7.3c-3.5-4.9-5.3-11.4-5.3-19.7c0-9.5,2.5-17.3,7.5-23.3
		C37.1,123.9,43.6,120.8,51.7,120.8z M48,170c2.4,0,4.1-1.6,5.3-4.9c1.2-3.3,1.7-8.6,1.7-16.2c0-6.5-0.5-11-1.5-13.8
		c-1-2.7-2.7-4.1-5.2-4.1c-2.4,0-4.3,1.7-5.6,5.2s-1.9,8.4-1.9,14.7c0,6,0.6,10.7,1.9,14C43.9,168.3,45.6,170,48,170z"/>
	<path class="st3" d="M93.2,179.4c-5.6,0-9.8-1.9-12.7-5.6c-2.9-3.7-4.3-9.1-4.3-16.1c0-3.8,0.4-7.8,1.2-12c0.8-4.2,1.6-7,2.4-8.6
		c1.2-0.3,2.4-0.6,3.7-0.7c1.2-0.2,2.4-0.2,3.4-0.2c1.6,0,3,0.1,4.2,0.3s2.1,0.5,2.7,0.9c-0.5,2.8-0.8,5.7-1.1,8.7
		c-0.3,2.9-0.4,5.8-0.4,8.5c0,4.8,0.3,8.6,0.9,11.3s1.4,4.1,2.4,4.1s1.8-1.5,2.4-4.7c0.6-3.1,0.9-7.1,0.9-12.1
		c0-2.4-0.1-4.8-0.3-7.4c-0.2-2.5-0.4-4.3-0.6-5.3c2-0.8,4.5-1.5,7.4-2s5.8-0.7,8.6-0.7c0.3,1.2,0.5,2.8,0.6,4.7s0.2,3.9,0.2,6.1
		c0,10.1-1.8,17.8-5.4,23C105.7,176.8,100.3,179.4,93.2,179.4z"/>
	<path class="st3" d="M141.5,160.3c1.8,0.2,3.6,0.7,5.5,1.4s3.5,1.7,5,2.8c0,3.8-1.2,7-3.5,9.6c-2.4,2.6-5.7,3.9-9.9,3.9
		c-5.3,0-9.4-1.9-12.3-5.6c-2.9-3.8-4.4-9.2-4.4-16.4c0-1.7,0-3.4,0.1-5.2s0.2-3.7,0.3-5.7c-1.1-0.2-2-0.3-3-0.6
		c-0.9-0.2-1.8-0.4-2.5-0.6c0-1.7,0.2-3.3,0.5-4.8s0.8-2.7,1.3-3.5c0.5,0.2,1.2,0.3,1.9,0.5c0.8,0.2,1.7,0.4,2.8,0.5
		c0.3-2.2,0.6-4,1-5.6c0.3-1.6,0.7-3,1.1-4.3c3.2,0,6.2,0.2,9.2,0.6s5.4,0.9,7.2,1.5c-0.3,1.3-0.7,2.7-1,4.2
		c-0.4,1.6-0.7,3.1-0.9,4.8c2.2,0.1,4.3,0,6.3,0c2-0.1,3.8-0.2,5.3-0.4c0,1.2-0.1,2.6-0.4,4.1c-0.3,1.5-0.6,2.9-1.1,4.2
		c-1.3,0.3-3,0.5-5,0.6s-4.2,0.2-6.5,0.1c-0.3,2-0.5,4-0.6,6c-0.2,2-0.2,3.9-0.2,5.7c0,4.4,0.2,7.4,0.5,8.9c0.3,1.6,0.8,2.3,1.6,2.3
		c0.5,0,0.9-0.8,1.3-2.4C141.2,165.3,141.4,163.1,141.5,160.3z"/>
	<path class="st3" d="M193.2,172.2c0.4,1.4,0.8,3.3,1.2,5.8s0.6,4.6,0.6,6.3c-5.2,0-10.2,0.2-14.9,0.6c-4.8,0.4-10.7,1.1-17.8,2
		c-1.3-7.8-2.4-17.8-3.4-29.8s-1.5-22-1.5-30c2.4-0.6,4.8-1.1,7.1-1.4s4.7-0.5,7-0.5c0.7,0,1.4,0,2,0c0.7,0,1.4,0.1,2.1,0.2
		c-0.4,2.6-0.8,6.1-1,10.5c-0.3,4.4-0.4,9.1-0.4,14c0,7.1,0.1,12.5,0.3,15.9c0.2,3.5,0.5,6.4,0.9,8.9c2.9-0.8,6-1.5,9.1-2
		C187.7,172.5,190.5,172.2,193.2,172.2z"/>
	<path class="st3" d="M200.4,138.9c1.4-0.8,3.1-1.5,5-1.9s3.9-0.6,6.1-0.6c1.1,0,2.1,0.1,3.1,0.2c1,0.1,2,0.2,3,0.4
		c-1.2,3.4-2.2,8.9-3,16.3c-0.9,7.5-1.5,15.6-1.8,24.5c-1.1,0.6-2.5,1-4.2,1.4c-1.7,0.3-3.5,0.5-5.3,0.5c-0.8,0-1.5,0-2-0.1
		c-0.6-0.1-1.1-0.1-1.5-0.2c-0.8-7.5-1.1-14.7-1-21.6C198.8,150.8,199.4,144.5,200.4,138.9z M211.4,119c1.6,0,3,0.1,4.4,0.4
		s2.5,0.6,3.5,1.1c-0.5,1.1-1,2.7-1.6,4.8c-0.6,2.1-1,4-1.3,5.6c-1.8,0.3-3.8,0.5-6,0.7c-2.2,0.1-4.7,0.2-7.5,0.1
		c-0.4-1.2-0.6-2.3-0.8-3.5s-0.3-2.3-0.3-3.4c0-0.8,0-1.6,0.1-2.2s0.2-1.2,0.4-1.7c1.2-0.7,2.6-1.2,4.1-1.5
		C207.9,119.2,209.5,119,211.4,119z"/>
	<path class="st3" d="M238.3,170.8c0,1.5,0,2.9,0,4.4c0,1.4,0.1,3.2,0.2,5.2c-1.5,0.4-3.5,0.8-6,1.1s-4.9,0.5-7,0.5
		c-0.8-5.7-1.5-13.1-2.1-22.1s-0.9-16.5-0.9-22.6c1.2-0.6,2.9-1.1,5.1-1.5c2.2-0.4,4.5-0.6,6.8-0.6c1.1,0,2.1,0.1,3.1,0.2
		c1,0.1,2,0.3,3,0.5c-0.3,1.9-0.4,3.3-0.6,4.1c-0.1,0.8-0.2,1.7-0.2,2.5c1.5-2.2,3.3-3.9,5.2-5s4.1-1.7,6.4-1.7c3.7,0,6.5,1.3,8.4,4
		c1.9,2.7,2.8,6.6,2.8,11.8c0,4.1-0.3,8.8-1,14.2c-0.7,5.3-1.4,9.4-2.1,12.1c-2,0-4.3-0.1-6.8-0.4c-2.5-0.2-5.3-0.6-8.5-1.1
		c0.9-4.9,1.6-9.6,2.1-13.8c0.5-4.3,0.7-7.8,0.7-10.4c0-1.5-0.2-2.6-0.6-3.3c-0.4-0.7-1.1-1.1-2-1.1c-1,0-2,0.6-2.9,1.7
		c-0.9,1.2-1.8,2.8-2.5,4.8c-0.2,3.3-0.4,6.3-0.4,9.1C238.4,166.1,238.3,168.6,238.3,170.8z"/>
	<path class="st3" d="M295.1,163.5c2,0.4,4,1.1,6.1,2.2c2.1,1.1,3.8,2.3,5.1,3.7c-0.4,1.4-1.4,2.8-2.9,4.4c-1.5,1.6-3.3,2.9-5.4,3.9
		c-1.7,0.8-3.5,1.5-5.5,1.9s-4,0.7-6.2,0.7c-5.5,0-9.7-1.6-12.8-4.8c-3.1-3.2-4.6-7.5-4.6-13c0-3.4,0.5-6.8,1.6-10.1
		s2.6-6.3,4.6-8.9c2.3-3,4.9-5.3,7.8-7s6-2.5,9.1-2.5c4.4,0,7.9,1.1,10.6,3.4c2.6,2.2,3.9,5.2,3.9,8.9c0,1.7-0.2,3.5-0.5,5.6
		c-0.3,2-0.8,3.8-1.3,5.2c-1.6,0.8-3.6,1.4-6,1.8c-2.4,0.4-5.2,0.6-8.6,0.6c-0.9,0-1.9-0.1-2.8-0.2c-0.9-0.1-1.8-0.2-2.7-0.4
		c-0.1,0.3-0.1,0.7-0.1,1.1c0,0.4,0,1,0,1.8c0,3.2,0.4,5.6,1.2,7.3c0.8,1.7,2,2.5,3.5,2.5c1,0,2.1-0.8,3.2-2.4
		C293.6,167.5,294.5,165.6,295.1,163.5z M285.6,151.4c0.6,0.2,1.2,0.3,1.9,0.4c0.6,0.1,1.1,0.1,1.5,0.1s0.9,0,1.5,0s0.9-0.1,1.1-0.1
		c0.3-1.3,0.6-2.4,0.7-3.5c0.2-1.1,0.3-2.1,0.3-3c0-1.1-0.1-1.9-0.4-2.4s-0.7-0.8-1.3-0.8c-1.1,0-2,0.9-3,2.6
		C286.9,146.2,286.1,148.5,285.6,151.4z"/>
	<path class="st3" d="M333.7,152.1c4.7,2.8,7.9,5.4,9.5,7.6c1.6,2.3,2.4,4.8,2.4,7.6c0,4.3-1.8,7.8-5.5,10.6s-8.2,4.2-13.5,4.2
		c-4.5,0-8.3-1.4-11.4-4.1c-3-2.7-4.6-6-4.6-9.7c1.2-0.6,2.8-1.1,4.8-1.5s3.8-0.6,5.4-0.6c0,2.3,0.5,4.2,1.5,5.6
		c1,1.4,2.4,2.1,4.1,2.1c1.3,0,2.3-0.3,3-0.9c0.7-0.6,1-1.4,1-2.5s-0.4-2.2-1.3-3.2c-0.9-1.1-2.8-2.5-5.8-4.3
		c-4.5-2.8-7.4-5.2-8.9-7.4c-1.5-2.1-2.2-4.5-2.2-7.2c0-4.2,1.6-7.7,4.8-10.4c3.2-2.8,7.4-4.1,12.4-4.1s9.1,1.1,12.2,3.3
		s5.1,5.3,6,9.3c-1.5,1-3.3,1.8-5.2,2.3c-1.9,0.6-4.5,0.9-7.6,1.1c-0.4-2.5-0.9-4.3-1.7-5.4c-0.8-1.1-1.8-1.7-3.1-1.7
		c-0.9,0-1.6,0.3-2.1,0.8s-0.7,1.2-0.7,2.1c0,0.8,0.4,1.7,1.2,2.6C329.1,149.3,330.9,150.5,333.7,152.1z"/>
</g>
</svg>
